<svg xmlns="http://www.w3.org/2000/svg" xmlns:xlink="http://www.w3.org/1999/xlink" viewBox="0 0 59.15 59.15"><defs><style>.cls-1{fill:url(#linear-gradient);}.cls-2{fill:#fff;}</style><linearGradient id="linear-gradient" x1="18.84" y1="-16309.5" x2="39.45" y2="-16249.01" gradientTransform="matrix(0.23, 0.97, 0.97, -0.23, 15861.54, -3754.98)" gradientUnits="userSpaceOnUse"><stop offset="0" stop-color="#df5814"/><stop offset="0.16" stop-color="#d65116"/><stop offset="0.42" stop-color="#bf3d1c"/><stop offset="0.75" stop-color="#991d25"/><stop offset="1" stop-color="#76002d"/></linearGradient></defs><g id="Layer_2" data-name="Layer 2"><g id="OBJECTS"><circle class="cls-1" cx="29.58" cy="29.58" r="29.58" transform="translate(-6.03 51.53) rotate(-76.66)"/><path class="cls-2" d="M42.62,35.19a5.92,5.92,0,0,0-1.31-.81c-.45-.23-3.75-1.85-4.38-2.07s-1.13-.41-1.67.4c-.41.61-1.62,2-2,2.45s-.52.42-1.13.11A22,22,0,0,1,27,32.16a18.51,18.51,0,0,1-3.51-4.33c-.28-.47-.1-.69.25-1,.21-.2,1.14-1.33,1.22-1.44s.41-.77.41-.77a1.38,1.38,0,0,0-.05-1.3c-.11-.21-1.8-4.3-2-4.68-.49-1.16-1-1.22-1.5-1.19-.24,0-2.48,0-3.2.81l-.13.14a7.13,7.13,0,0,0-2.16,5.28,8,8,0,0,0,.34,2.21,14.43,14.43,0,0,0,2.31,4.46s1.67,2.31,2.49,3.26A22.57,22.57,0,0,0,30,39.93c3.78,1.48,5.4,1.81,6.32,1.81a13.35,13.35,0,0,0,1.43-.22c1.15-.1,3.9-1.53,4.48-3.14A5.31,5.31,0,0,0,42.62,35.19Z"/></g></g></svg>