<svg xmlns="http://www.w3.org/2000/svg" xmlns:xlink="http://www.w3.org/1999/xlink" viewBox="0 0 59.15 59.15"><defs><style>.cls-1{fill:url(#linear-gradient);}.cls-2{fill:#fff;}</style><linearGradient id="linear-gradient" x1="18.84" y1="-16487.79" x2="39.45" y2="-16427.29" gradientTransform="matrix(0.12, 0.99, 0.99, -0.12, 16357.12, -2024.93)" gradientUnits="userSpaceOnUse"><stop offset="0" stop-color="#cff7a6"/><stop offset="0.1" stop-color="#bde9ae"/><stop offset="0.39" stop-color="#92c9c2"/><stop offset="0.64" stop-color="#72b1d1"/><stop offset="0.85" stop-color="#5fa2da"/><stop offset="1" stop-color="#589ddd"/></linearGradient></defs><g id="Layer_2" data-name="Layer 2"><g id="OBJECTS"><circle class="cls-1" cx="29.58" cy="29.58" r="29.58" transform="translate(-3.41 55.29) rotate(-82.93)"/><path class="cls-2" d="M42.55,19.51H16.42a2.26,2.26,0,0,0-2.25,2.26V37.38a2.26,2.26,0,0,0,2.25,2.26H42.55a2.26,2.26,0,0,0,2.25-2.26V21.77A2.26,2.26,0,0,0,42.55,19.51ZM43,22.12,29.77,29.46a.55.55,0,0,1-.25.07h-.07a.55.55,0,0,1-.25-.07L16,22.12a.52.52,0,1,1,.51-.91l13,7.22,13-7.22a.52.52,0,1,1,.51.91Z"/></g></g></svg>