<svg xmlns="http://www.w3.org/2000/svg" xmlns:xlink="http://www.w3.org/1999/xlink" viewBox="0 0 450.44 411.58"><defs><style>.cls-1{fill:none;}.cls-2{isolation:isolate;}.cls-3{fill:#d8cfc4;}.cls-4{fill:#beb4a8;}.cls-5{fill:#f2e6d8;}.cls-6{fill:#93949a;}.cls-7{fill:#fcac14;}.cls-8{fill:#fdb813;}.cls-9{fill:#f4f3f3;}.cls-10{fill:#d2d3d5;}.cls-11{fill:#d8d8d8;}.cls-12{fill:#efe1bc;}.cls-13{fill:#c49c80;}.cls-14{fill:#94d6f7;}.cls-15{fill:#c0c2c9;}.cls-16{opacity:0.4;}.cls-17{opacity:0.7;}.cls-18{fill:#ebf4f7;}.cls-19{fill:#dcd2c7;}.cls-20{fill:#d7d5d6;}.cls-21{fill:#868585;}.cls-22{fill:#d3d3d3;}.cls-23{fill:#faf8f9;}.cls-24{fill:#e0dede;}.cls-25,.cls-47{opacity:0.1;}.cls-26{fill:#572f05;}.cls-27{fill:#3a1d03;}.cls-28{fill:#388852;}.cls-29{fill:#2c7741;}.cls-30{fill:#e8e8e8;}.cls-31{fill:#dbdbdb;}.cls-32{fill:#c5c5c5;}.cls-33{fill:#898989;}.cls-34{fill:#fff;}.cls-35{fill:#0fb7b3;}.cls-36{fill:#199b94;}.cls-37{fill:#01a3a2;}.cls-38{fill:#ff9c00;}.cls-39{fill:#ffba5f;}.cls-40{fill:#ffac33;}.cls-41{fill:#1a4789;}.cls-42{fill:#1f5699;}.cls-43{fill:#0b357c;}.cls-44{fill:#39844b;}.cls-45{fill:#bdbdbd;}.cls-46{fill:#dcdcdc;}.cls-48{fill:#242626;}.cls-49{fill:#3b3f3f;}.cls-50{fill:#dfe5f3;}.cls-51{fill:#aeb6bc;}.cls-52{fill:#cad3da;}.cls-53{fill:#6b4125;}.cls-54{fill:#7a5930;}.cls-55{fill:#cf9b61;}.cls-56{fill:#c0c5d1;}.cls-57{fill:#a9b5c4;}.cls-58{fill:#c3c5c5;}.cls-59{fill:#e6e7ec;}.cls-60,.cls-64{fill:#939599;}.cls-60{opacity:0.5;}.cls-61{fill:#d5dfe6;}.cls-62{fill:#c8d2db;}.cls-63{fill:#e1eaef;}.cls-65{fill:#f5f3f2;}.cls-66{fill:#e4e4e4;}.cls-67{fill:#cacaca;}.cls-68{fill:#a8aaaa;}.cls-69{fill:#9fb0bc;}.cls-70{fill:#e2e6ed;}.cls-71{fill:#a5aab4;}.cls-72{fill:#111114;}.cls-73{fill:#184c9f;}.cls-74{fill:#f4f6f7;}.cls-75{fill:#3c2b2a;}.cls-76{fill:#5c3612;}.cls-77{fill:#708e16;}.cls-78{fill:#688412;}.cls-79{fill:#efb185;}.cls-80{fill:#1772cc;}.cls-81{fill:#2180f2;}.cls-82{fill:#0a0a0a;}.cls-83{fill:#231d21;}.cls-84{fill:#31282e;}.cls-85{fill:#dd9569;}.cls-86{fill:#f2b78f;}.cls-87{fill:#e6a376;}.cls-88{fill:#341c09;}.cls-89{fill:#221101;}.cls-90{fill:#252924;}.cls-91{fill:#f29703;}.cls-92{fill:#f0bf02;}.cls-93{fill:#f1b287;}.cls-94{fill:#ec6665;}.cls-95{fill:#d75150;}.cls-96{fill:#ff8183;}.cls-97{fill:#5f2503;}.cls-98{fill:#622703;}.cls-99{fill:#4c1e02;}.cls-100{fill:#5e2503;}.cls-101{fill:#411a02;}.cls-102{fill:#692903;}.cls-103{fill:#fdc33b;}.cls-104{fill:#212121;}.cls-105{fill:#2b2b2b;}.cls-106{fill:#9bb5bc;}.cls-107{fill:#e5a67c;}.cls-108{fill:#cadfe8;}.cls-109{fill:#b4cbd3;}.cls-110{fill:#dfeef4;}.cls-111{fill:#332c31;}.cls-112{fill:#141113;}.cls-113{fill:#686048;}.cls-114{fill:#746c50;}.cls-115{fill:#484332;}.cls-116{fill:#3a3528;}.cls-117{fill:#89b7c9;}.cls-118{fill:#598a96;}.cls-119{fill:#70a3b2;}.cls-120{fill:#256272;}.cls-121{fill:#3ea2bd;}.cls-122{fill:#2cc2e5;}.cls-123{fill:#52d9fe;}.cls-124{fill:#133b7b;}.cls-125{fill:#0d2955;}.cls-126{fill:#154189;}.cls-127{fill:#94c4d3;}.cls-128{fill:#6194a3;}.cls-129{fill:#bad1de;}.cls-130{fill:#c6dbe5;}.cls-131{fill:#f9c5a2;}.cls-132{fill:#eab48f;}.cls-133{fill:#8fb6d7;}.cls-134{fill:#558299;}.cls-135{clip-path:url(#clip-path);}.cls-136{fill:#123468;}.cls-137{fill:#113365;}.cls-138{fill:#113163;}.cls-139{fill:#103060;}.cls-140{fill:#102f5e;}.cls-141{fill:#0f2e5b;}.cls-142{fill:#0f2c58;}.cls-143{fill:#0f2b56;}.cls-144{fill:#0e2a53;}.cls-145{fill:#0e2851;}.cls-146{fill:#0d274e;}.cls-147{fill:#3f3f3f;}.cls-148{clip-path:url(#clip-path-2);}.cls-149{fill:#83643d;}.cls-150{fill:#5b452a;}.cls-151{fill:#bdbbbb;}.cls-152{fill:#d2d0d0;}.cls-153{fill:#e9f0f4;}.cls-154{fill:#543f3e;}</style><clipPath id="clip-path"><path class="cls-1" d="M208.74,247.42q.85,6.6,1.7,13.2c.28,2.21.57,4.42.85,6.63q.86,6.6,1.7,13.2s0,0-.13-.09l-4.18-32.52A.77.77,0,0,0,208.74,247.42Z"/></clipPath><clipPath id="clip-path-2"><path class="cls-1" d="M258.12,225.22q.86,6.6,1.7,13.2c.28,2.21.57,4.42.85,6.63.56,4.4,1.14,8.8,1.7,13.2l-.13-.09-4.18-32.52A.77.77,0,0,0,258.12,225.22Z"/></clipPath></defs><g id="Layer_2" data-name="Layer 2"><g id="Layer_1-2" data-name="Layer 1"><g class="cls-2"><polygon class="cls-3" points="450.11 265.6 450.07 281.34 225.95 411.58 226 395.84 450.11 265.6"/><polygon class="cls-4" points="226 395.84 225.95 411.58 0.36 281.34 0.41 265.6 226 395.84"/><polygon class="cls-5" points="450.11 265.6 226 395.84 0.41 265.6 224.53 135.35 450.11 265.6"/></g><polygon class="cls-6" points="436.34 273.6 450.06 265.65 450.44 130.27 436.83 138.18 436.34 273.6"/><polygon class="cls-7" points="14.11 273.57 0.38 265.62 0 130.24 13.61 138.15 14.11 273.57"/><polygon class="cls-8" points="239.2 7.91 239.58 143.29 14.11 273.57 13.61 138.15 239.2 7.91"/><polygon class="cls-9" points="436.83 138.18 450.44 130.27 225.58 0 211.44 8.17 436.83 138.18"/><polygon class="cls-10" points="225.01 16 225.2 151.6 436.34 273.6 436.83 138.18 225.01 16"/><polygon class="cls-11" points="279.98 64.78 281.92 63.64 281.66 155.43 279.71 156.56 279.98 64.78"/><polygon class="cls-12" points="243.43 43.68 245.38 42.55 281.92 63.64 279.98 64.78 243.43 43.68"/><polygon class="cls-13" points="279.98 64.78 279.71 156.56 243.17 135.47 243.43 43.68 279.98 64.78"/><polygon class="cls-14" points="276.48 67.53 276.48 149.84 246.66 133.54 246.66 50.35 276.48 67.53"/><polygon class="cls-11" points="246.66 50.35 246.66 133.54 249.15 132.54 249.15 51.78 246.66 50.35"/><polygon class="cls-15" points="246.66 133.54 276.48 149.84 276.48 146.88 249.15 132.54 246.66 133.54"/><g class="cls-16"><polygon class="cls-14" points="276.48 67.53 276.48 149.84 246.66 133.54 246.66 50.35 276.48 67.53"/></g><g class="cls-17"><path class="cls-18" d="M246.67,50.35V75.66s1.25.41,1.86-3.83.62,3.29.62,8.37.31,23.42,1.23,20.33,1.84-18.49,1.84-23,1.39-10.3,2-9.07.77,3.07,1.69,3.45,2.92-1.45,4.46-2.68,1.69,12.79,2.31,15.07.92-10.34,2.77-5.84c1.3,3.18-.93,33.52,0,34.13s2.15-5.22,1.84-7.84,1.08-21.8,1.54-23.28,1.23.61,1.54,3.87-.12,5.63,0,7.78,2.11,17.94,2.42,4.39c.13-5.83-1.68-10.29,0-13.37s2-.65,2,1.91,1.65,8.51,1.65,8.51V67.53Z"/></g><polygon class="cls-12" points="316.52 85.88 318.47 84.74 318.21 176.53 316.25 177.66 316.52 85.88"/><polygon class="cls-12" points="279.97 64.78 281.92 63.64 318.47 84.74 316.52 85.88 279.97 64.78"/><polygon class="cls-13" points="316.52 85.88 316.25 177.66 279.71 156.56 279.97 64.78 316.52 85.88"/><polygon class="cls-14" points="313.02 88.63 313.02 170.94 283.21 154.64 283.21 71.45 313.02 88.63"/><polygon class="cls-11" points="283.21 71.45 283.21 154.64 285.69 153.64 285.69 72.88 283.21 71.45"/><polygon class="cls-15" points="283.21 154.64 313.02 170.94 313.02 167.98 285.69 153.64 283.21 154.64"/><g class="cls-16"><polygon class="cls-14" points="313.02 88.63 313.02 170.94 283.21 154.64 283.21 71.45 313.02 88.63"/></g><g class="cls-17"><path class="cls-18" d="M283.21,71.45V96.76s1.25.41,1.87-3.83.61,3.29.61,8.36.31,23.43,1.23,20.33,1.84-18.48,1.84-22.94,1.39-10.31,2-9.08.77,3.07,1.69,3.46,2.93-1.45,4.47-2.68,1.68,12.79,2.3,15.07.92-10.34,2.77-5.85c1.31,3.18-.92,33.53,0,34.14s2.15-5.23,1.85-7.84,1.07-21.8,1.53-23.28,1.23.6,1.54,3.87-.11,5.63,0,7.78,2.11,17.94,2.42,4.38c.13-5.82-1.68-10.28,0-13.36s2-.65,2,1.91,1.65,8.51,1.65,8.51V88.63Z"/></g><polygon class="cls-11" points="367.73 114.18 369.68 113.04 369.42 204.83 367.47 205.96 367.73 114.18"/><polygon class="cls-12" points="331.18 93.08 333.13 91.94 369.68 113.04 367.73 114.18 331.18 93.08"/><polygon class="cls-13" points="367.73 114.18 367.47 205.96 330.92 184.87 331.18 93.08 367.73 114.18"/><polygon class="cls-14" points="364.23 116.93 364.23 199.24 334.42 182.94 334.42 99.75 364.23 116.93"/><polygon class="cls-11" points="334.42 99.75 334.42 182.94 336.9 181.94 336.9 101.18 334.42 99.75"/><polygon class="cls-15" points="334.42 182.94 364.23 199.24 364.23 196.28 336.9 181.94 334.42 182.94"/><g class="cls-16"><polygon class="cls-14" points="364.23 116.93 364.23 199.24 334.42 182.94 334.42 99.75 364.23 116.93"/></g><polygon class="cls-12" points="404.27 135.27 406.22 134.14 405.96 225.93 404 227.06 404.27 135.27"/><polygon class="cls-12" points="367.73 114.18 369.68 113.04 406.22 134.14 404.27 135.27 367.73 114.18"/><polygon class="cls-13" points="404.27 135.27 404 227.06 367.47 205.96 367.73 114.18 404.27 135.27"/><polygon class="cls-14" points="400.77 138.03 400.77 220.34 370.96 204.04 370.96 120.85 400.77 138.03"/><polygon class="cls-11" points="370.96 120.85 370.96 204.04 373.45 203.04 373.45 122.28 370.96 120.85"/><polygon class="cls-15" points="370.96 204.04 400.77 220.34 400.77 217.38 373.45 203.04 370.96 204.04"/><g class="cls-16"><polygon class="cls-14" points="400.77 138.03 400.77 220.34 370.96 204.04 370.96 120.85 400.77 138.03"/></g><path class="cls-19" d="M65.91,265c6.41,3.7,6.45,9.7.08,13.4s-16.73,3.7-23.14,0-6.45-9.7-.08-13.4S59.5,261.3,65.91,265Z"/><polygon class="cls-7" points="136.23 107.47 124.47 102.32 118.41 117.85 116.48 118.96 97.27 130.05 95.34 131.17 82.18 138.77 80.24 139.88 71.6 134.86 71.65 151.24 80.29 156.26 80.59 156.09 82.22 155.15 95.39 147.54 97.32 146.43 116.53 135.34 118.46 134.22 117.56 134.74 134.35 124.96 135.86 124.09 136.28 123.85 136.23 107.47"/><g class="cls-2"><polygon class="cls-20" points="130.54 124.62 121.9 119.59 123.4 118.72 132.04 123.75 130.54 124.62"/><polygon class="cls-21" points="130.54 124.62 121.9 119.59 121.89 117.37 130.53 122.39 130.54 124.62"/><polygon class="cls-22" points="130.53 122.39 121.89 117.37 121.86 105.44 130.5 110.46 130.53 122.39"/><polygon class="cls-20" points="116.53 132.7 107.89 127.68 109.82 126.57 118.46 131.59 116.53 132.7"/><polygon class="cls-23" points="118.45 129.37 109.81 124.35 121.89 117.37 130.53 122.39 118.45 129.37"/><polygon class="cls-21" points="118.46 131.59 109.82 126.57 109.81 124.35 118.45 129.37 118.46 131.59"/><polygon class="cls-21" points="130.5 110.46 121.86 105.44 121.85 103.22 130.49 108.24 130.5 110.46"/><polygon class="cls-21" points="116.53 132.7 107.89 127.68 107.88 125.46 116.52 130.48 116.53 132.7"/><polygon class="cls-22" points="116.52 130.48 107.88 125.46 107.85 113.53 116.49 118.55 116.52 130.48"/><polygon class="cls-21" points="118.41 117.43 109.78 112.41 109.77 110.19 118.41 115.21 118.41 117.43"/><polygon class="cls-21" points="116.49 118.55 107.85 113.53 107.84 111.31 116.48 116.33 116.49 118.55"/><polygon class="cls-20" points="95.39 144.91 86.75 139.89 88.68 138.77 97.32 143.79 95.39 144.91"/><polygon class="cls-21" points="97.32 143.79 88.68 138.77 88.67 136.55 97.31 141.57 97.32 143.79"/><polygon class="cls-23" points="97.31 141.57 88.67 136.55 107.88 125.46 116.52 130.48 97.31 141.57"/><polygon class="cls-21" points="95.39 144.91 86.75 139.89 86.74 137.66 95.38 142.68 95.39 144.91"/><polygon class="cls-22" points="95.38 142.68 86.74 137.66 86.71 125.73 95.35 130.75 95.38 142.68"/><polygon class="cls-21" points="97.28 129.63 88.64 124.61 88.63 122.39 97.27 127.42 97.28 129.63"/><polygon class="cls-21" points="95.35 130.75 86.71 125.73 86.7 123.51 95.34 128.53 95.35 130.75"/><polygon class="cls-20" points="80.59 153.45 71.95 148.43 73.58 147.49 82.22 152.51 80.59 153.45"/><polygon class="cls-23" points="82.22 150.29 73.58 145.27 86.74 137.66 95.38 142.68 82.22 150.29"/><polygon class="cls-21" points="82.22 152.51 73.58 147.49 73.58 145.27 82.22 150.29 82.22 152.51"/><polygon class="cls-21" points="82.18 138.35 73.54 133.33 73.54 131.11 82.18 136.13 82.18 138.35"/><polygon class="cls-24" points="80.29 153.63 71.65 148.61 71.6 132.23 80.24 137.25 80.29 153.63"/><polygon class="cls-23" points="123.78 102.1 121.85 103.22 109.77 110.19 107.84 111.31 88.63 122.39 86.7 123.51 73.54 131.11 71.6 132.23 80.24 137.25 82.18 136.13 95.34 128.53 97.27 127.42 116.48 116.33 118.41 115.21 130.49 108.24 132.42 107.12 123.78 102.1"/><polygon class="cls-24" points="116.53 132.7 117.56 132.1 116.53 132.7 116.53 132.7"/><polygon class="cls-24" points="132.04 123.75 130.54 124.62 130.54 124.62 132.04 123.75"/><path class="cls-24" d="M132.42,107.12l-1.93,1.12-12.08,7-1.93,1.12L97.27,127.42l-1.93,1.11-13.16,7.6-1.94,1.12.05,16.38.3-.18,1.63-.94,13.17-7.6h0l1.93-1.12h0l19.21-11.09h0l1.93-1.11-.9.51,13-7.48,1.51-.87.42-.25Zm-50.2,43.17,0-11.94,13.17-7.6,0,11.93Zm15.09-8.72,0-11.94,19.21-11.09,0,11.94Zm21.14-12.2,0-11.94,12.09-7,0,11.93Z"/></g><g class="cls-25"><path d="M86.08,128.67c1.6.93,1.61,2.42,0,3.34a6.29,6.29,0,0,1-5.76,0c-1.6-.92-1.61-2.41,0-3.34A6.36,6.36,0,0,1,86.08,128.67Z"/></g><path class="cls-26" d="M85.39,128.34c1.22.71,1.22,1.84,0,2.54a4.81,4.81,0,0,1-4.37,0,1.34,1.34,0,0,1,0-2.53A4.81,4.81,0,0,1,85.39,128.34Z"/><polygon class="cls-26" points="79.13 124.73 80.12 129.78 86.29 129.78 87.28 124.6 79.13 124.73"/><path class="cls-27" d="M86.08,122.93c1.6.92,1.61,2.42,0,3.34a6.36,6.36,0,0,1-5.76,0c-1.6-.92-1.61-2.42,0-3.34A6.36,6.36,0,0,1,86.08,122.93Z"/><path class="cls-28" d="M85.19,123.38c1.18.68,1.18,1.77,0,2.44a4.66,4.66,0,0,1-4.21,0,1.29,1.29,0,0,1,0-2.44A4.66,4.66,0,0,1,85.19,123.38Z"/><path class="cls-28" d="M80.17,124.91s-3-3.8,0-10.63c0,0,2.59,3.27,1.1,11.66A2.41,2.41,0,0,1,80.17,124.91Z"/><path class="cls-29" d="M80.15,114.33c.06,2.63.21,7.2.57,11.27a2,2,0,0,0,.5.34C82.61,118.11,80.45,114.75,80.15,114.33Z"/><path class="cls-28" d="M81.65,124.45s-2.41-4.21,1.53-10.53c0,0,2.08,3.62-.64,11.7A2.36,2.36,0,0,1,81.65,124.45Z"/><path class="cls-29" d="M83,113.92c-.34,2.61-.87,7.15-1.12,11.23a1.8,1.8,0,0,0,.45.41C84.84,118,83.2,114.38,83,113.92Z"/><path class="cls-28" d="M81.8,126.11s-3.61-1.28-4.5-7.08c0,0,3.1,1.09,5.64,7.32A1.87,1.87,0,0,1,81.8,126.11Z"/><path class="cls-29" d="M77.34,119.05c1.14,1.73,3.16,4.72,5.11,7.28a1.34,1.34,0,0,0,.49,0C80.57,120.55,77.72,119.2,77.34,119.05Z"/><path class="cls-28" d="M83.4,125.55s-1.93-2.21-.35-6.42c0,0,1.66,1.89,1,7A1.4,1.4,0,0,1,83.4,125.55Z"/><path class="cls-29" d="M83.07,119.15c.11,1.59.34,4.35.68,6.79a1,1,0,0,0,.32.19C84.67,121.37,83.26,119.4,83.07,119.15Z"/><path class="cls-28" d="M84.26,124.13s-1.85-3.35,1.33-8.28c0,0,1.6,2.88-.65,9.22A1.82,1.82,0,0,1,84.26,124.13Z"/><path class="cls-29" d="M85.62,115.89c-.3,2.06-.78,5.63-1,8.85a1.65,1.65,0,0,0,.35.33C87,119.16,85.8,116.26,85.62,115.89Z"/><path class="cls-28" d="M84.73,124.75s-.44-2.82,3.06-5.46c0,0,.38,2.43-2.82,6.3A1.42,1.42,0,0,1,84.73,124.75Z"/><path class="cls-29" d="M87.79,119.32c-.73,1.37-2,3.76-3,6a1.08,1.08,0,0,0,.16.32C88,122,87.82,119.63,87.79,119.32Z"/><g class="cls-25"><path d="M124,107.25c1.6.92,1.6,2.42,0,3.34a6.32,6.32,0,0,1-5.76,0c-1.6-.92-1.61-2.41,0-3.33A6.36,6.36,0,0,1,124,107.25Z"/></g><path class="cls-26" d="M123.34,106.92a1.34,1.34,0,0,1,0,2.53,4.81,4.81,0,0,1-4.37,0,1.34,1.34,0,0,1,0-2.53A4.83,4.83,0,0,1,123.34,106.92Z"/><polygon class="cls-26" points="117.08 103.3 118.06 108.35 124.24 108.35 125.23 103.17 117.08 103.3"/><path class="cls-27" d="M124,101.51c1.6.92,1.6,2.41,0,3.33a6.29,6.29,0,0,1-5.76,0c-1.6-.92-1.61-2.41,0-3.33A6.32,6.32,0,0,1,124,101.51Z"/><path class="cls-28" d="M123.14,102a1.3,1.3,0,0,1,0,2.45,4.63,4.63,0,0,1-4.21,0,1.29,1.29,0,0,1,0-2.44A4.66,4.66,0,0,1,123.14,102Z"/><path class="cls-28" d="M118.11,103.48s-3-3.8,0-10.63c0,0,2.6,3.27,1.11,11.66A2.32,2.32,0,0,1,118.11,103.48Z"/><path class="cls-29" d="M118.1,92.9c.06,2.63.2,7.2.56,11.27a1.77,1.77,0,0,0,.51.34C120.56,96.69,118.4,93.32,118.1,92.9Z"/><path class="cls-28" d="M119.59,103s-2.41-4.2,1.53-10.52c0,0,2.08,3.62-.64,11.69A2.36,2.36,0,0,1,119.59,103Z"/><path class="cls-29" d="M120.92,92.49c-.34,2.61-.87,7.15-1.12,11.23a1.8,1.8,0,0,0,.45.42C122.79,96.61,121.15,93,120.92,92.49Z"/><path class="cls-28" d="M119.74,104.68s-3.6-1.27-4.5-7.08c0,0,3.11,1.1,5.64,7.32A1.87,1.87,0,0,1,119.74,104.68Z"/><path class="cls-29" d="M115.29,97.62c1.14,1.74,3.16,4.72,5.11,7.29a1.38,1.38,0,0,0,.48,0C118.52,99.12,115.66,97.77,115.29,97.62Z"/><path class="cls-28" d="M121.35,104.12s-1.93-2.2-.36-6.42c0,0,1.67,1.9,1,7A1.46,1.46,0,0,1,121.35,104.12Z"/><path class="cls-29" d="M121,97.73c.11,1.59.34,4.34.68,6.79a1.29,1.29,0,0,0,.32.19C122.62,100,121.21,98,121,97.73Z"/><path class="cls-28" d="M122.2,102.71s-1.84-3.35,1.34-8.29c0,0,1.6,2.89-.65,9.22A1.86,1.86,0,0,1,122.2,102.71Z"/><path class="cls-29" d="M123.57,94.47c-.3,2-.78,5.63-1,8.84a1.37,1.37,0,0,0,.35.33C125,97.74,123.74,94.83,123.57,94.47Z"/><path class="cls-28" d="M122.68,103.33s-.44-2.82,3-5.47c0,0,.39,2.43-2.81,6.3A1.41,1.41,0,0,1,122.68,103.33Z"/><path class="cls-29" d="M125.74,97.9c-.74,1.36-2,3.75-3,5.94a.93.93,0,0,0,.16.32C125.9,100.56,125.77,98.2,125.74,97.9Z"/><g class="cls-25"><polygon points="245.43 178.97 212.19 159.65 162.48 188.34 195.72 207.66 245.43 178.97"/></g><g class="cls-2"><polygon class="cls-30" points="227.61 175.78 230.37 174.18 230.65 76.75 227.88 78.35 227.61 175.78"/><polygon class="cls-31" points="227.88 78.35 230.65 76.75 210.39 65.05 207.63 66.66 227.88 78.35"/><polygon class="cls-32" points="207.63 66.66 207.35 164.09 227.61 175.78 227.88 78.35 207.63 66.66"/></g><g class="cls-2"><polygon class="cls-30" points="227.69 137.93 227.68 140.96 191.5 161.98 191.51 158.95 227.69 137.93"/><polygon class="cls-33" points="191.51 158.95 191.5 161.98 172.3 150.89 172.31 147.87 191.51 158.95"/><polygon class="cls-34" points="227.69 137.93 191.51 158.95 172.31 147.87 208.49 126.84 227.69 137.93"/></g><g class="cls-2"><polygon class="cls-35" points="200.08 135.09 200.08 137.71 211.11 144.11 211.1 141.5 200.08 135.09"/><polygon class="cls-36" points="211.1 141.5 211.11 144.11 224.78 136.22 224.78 133.6 211.1 141.5"/><polygon class="cls-37" points="200.08 135.09 211.1 141.5 224.78 133.6 213.76 127.19 200.08 135.09"/></g><g class="cls-2"><polygon class="cls-38" points="201.81 131.83 201.82 133.8 210.11 138.62 210.1 136.65 201.81 131.83"/><polygon class="cls-39" points="210.1 136.65 210.11 138.62 220.4 132.68 220.39 130.71 210.1 136.65"/><polygon class="cls-40" points="201.81 131.83 210.1 136.65 220.39 130.71 212.1 125.89 201.81 131.83"/></g><g class="cls-2"><polygon class="cls-30" points="227.69 105.02 227.68 108.04 191.5 129.07 191.51 126.04 227.69 105.02"/><polygon class="cls-33" points="191.51 126.04 191.5 129.07 172.3 117.98 172.31 114.95 191.51 126.04"/><polygon class="cls-34" points="227.69 105.02 191.51 126.04 172.31 114.95 208.49 93.93 227.69 105.02"/></g><g class="cls-2"><polygon class="cls-30" points="227.69 171.63 227.68 174.66 191.5 195.68 191.51 192.65 227.69 171.63"/><polygon class="cls-33" points="191.51 192.65 191.5 195.68 172.3 184.59 172.31 181.56 191.51 192.65"/><polygon class="cls-34" points="227.69 171.63 191.51 192.65 172.31 181.56 208.49 160.54 227.69 171.63"/></g><g class="cls-2"><polygon class="cls-41" points="222.58 107.47 212.25 101.47 212.21 88.64 222.54 94.65 222.58 107.47"/><polygon class="cls-42" points="222.54 94.65 212.21 88.64 214.94 87.07 225.27 93.07 222.54 94.65"/><polygon class="cls-43" points="225.27 93.07 225.31 105.89 222.58 107.47 222.54 94.65 225.27 93.07"/></g><g class="cls-2"><polygon class="cls-38" points="218.53 109.86 208.19 103.85 208.16 91.03 218.49 97.03 218.53 109.86"/><polygon class="cls-40" points="218.49 97.03 208.16 91.03 210.88 89.45 221.22 95.46 218.49 97.03"/><polygon class="cls-39" points="221.22 95.46 221.25 108.28 218.53 109.86 218.49 97.03 221.22 95.46"/></g><g class="cls-2"><polygon class="cls-41" points="201.26 151.25 190.93 145.25 190.9 132.42 201.23 138.43 201.26 151.25"/><polygon class="cls-42" points="201.23 138.43 190.9 132.42 193.62 130.85 203.96 136.85 201.23 138.43"/><polygon class="cls-43" points="203.96 136.85 203.99 149.68 201.26 151.25 201.23 138.43 203.96 136.85"/></g><g class="cls-2"><polygon class="cls-44" points="197.21 153.64 186.88 147.64 186.84 134.81 197.17 140.81 197.21 153.64"/><polygon class="cls-29" points="197.17 140.81 186.84 134.81 189.57 133.24 199.9 139.24 197.17 140.81"/><polygon class="cls-28" points="199.9 139.24 199.94 152.06 197.21 153.64 197.17 140.81 199.9 139.24"/></g><g class="cls-2"><polygon class="cls-30" points="192.38 196.31 195.14 194.7 195.41 97.27 192.65 98.87 192.38 196.31"/><polygon class="cls-45" points="192.65 98.87 195.41 97.27 175.16 85.57 172.39 87.17 192.65 98.87"/><polygon class="cls-46" points="172.39 87.17 172.12 184.61 192.38 196.31 192.65 98.87 172.39 87.17"/></g><g class="cls-2"><polygon class="cls-30" points="230.83 73.49 230.82 76.69 192.65 98.87 192.66 95.67 230.83 73.49"/><polygon class="cls-46" points="192.66 95.67 192.65 98.87 172.39 87.17 172.4 83.98 192.66 95.67"/><polygon class="cls-34" points="230.83 73.49 192.66 95.67 172.4 83.98 210.56 61.8 230.83 73.49"/></g><polygon class="cls-47" points="200.06 246.18 171.28 229.47 190.8 218.2 150.52 194.79 112.25 216.89 69.22 241.73 64.27 244.59 104.55 268 128.27 254.3 157.03 271.02 200.06 246.18"/><path class="cls-48" d="M179.53,243.07a1,1,0,0,1-.59.83l-18.72,10.81a2.74,2.74,0,0,1-.66.25h0a3.46,3.46,0,0,1-.72.09h0a3.27,3.27,0,0,1-.7-.08l-.07,0a2.86,2.86,0,0,1-.62-.24l-.22-.16,0,0-.17-.19s0,0,0,0a1.74,1.74,0,0,1-.1-.19v0a.71.71,0,0,1,0-.2h0v1.39a.49.49,0,0,0,0,.12.19.19,0,0,0,0,.07v0a.67.67,0,0,0,.06.12l0,0,0,0s0,0,0,0l.13.13h0l.14.11.1.07,0,0a2.17,2.17,0,0,0,.44.19l.19,0h.06l.13,0,.25,0h.62l.19,0,.2,0,.21-.05.24-.08.29-.14L179,245.28a1,1,0,0,0,.59-.82Z"/><path class="cls-48" d="M180.62,253.4s0,0,0,0l-.09.18,0,0a.86.86,0,0,1-.16.18l-.14.1-.12.09a2.76,2.76,0,0,1-.61.23l-.09,0a3.82,3.82,0,0,1-.68.07h-.05a3.19,3.19,0,0,1-.7-.08h-.05a2.57,2.57,0,0,1-.64-.24L158.53,243.2a1,1,0,0,1-.59-.82v1.39a1,1,0,0,0,.58.82l18.73,10.81a1.55,1.55,0,0,0,.29.14l.24.08a.5.5,0,0,0,.13,0h0l.07,0,.2,0,.19,0H179l.25,0,.12,0,.09,0,.17,0a2,2,0,0,0,.44-.2h0l.11-.07.13-.11h0l.13-.14,0,0a.05.05,0,0,0,0,0l0-.05a.54.54,0,0,0,0-.11s0,0,0,0,0,0,0,0,0-.05,0-.07a.5.5,0,0,0,0-.12V253.2A.64.64,0,0,1,180.62,253.4Z"/><path class="cls-49" d="M180.06,252.38a.87.87,0,0,1,0,1.64,3.11,3.11,0,0,1-2.82,0L158.53,243.2c-.78-.45-.79-1.18,0-1.63a3.11,3.11,0,0,1,2.82,0Z"/><path d="M90.66,219.08a9.93,9.93,0,0,0,1.47,4.47c1.24,1.56,7,5.21,6.57,6.79s-4.61,1.67-7.19-1-3.28-3.09-4.39-3.35-2.68-1.67-1.5-4.1C85.62,221.89,89.2,220.93,90.66,219.08Z"/><g class="cls-2"><polygon class="cls-50" points="172.8 222.8 174.75 221.67 174.88 176.32 172.93 177.46 172.8 222.8"/><polygon class="cls-51" points="172.93 177.46 174.88 176.32 148.52 161.1 146.57 162.24 172.93 177.46"/><polygon class="cls-52" points="146.57 162.24 146.44 207.58 172.8 222.8 172.93 177.46 146.57 162.24"/></g><g class="cls-2"><polygon class="cls-50" points="107.16 261.39 109.11 260.25 109.24 214.91 107.28 216.04 107.16 261.39"/><polygon class="cls-51" points="107.28 216.04 109.24 214.91 82.88 199.69 80.93 200.83 107.28 216.04"/><polygon class="cls-52" points="80.93 200.83 80.8 246.17 107.16 261.39 107.28 216.04 80.93 200.83"/></g><g class="cls-2"><polygon class="cls-53" points="69.12 203.89 69.13 206.78 103.11 226.53 103.11 223.64 69.12 203.89"/><polygon class="cls-54" points="103.11 223.64 103.11 226.53 180.48 181.86 180.47 178.98 103.11 223.64"/><polygon class="cls-55" points="69.12 203.89 103.11 223.64 180.47 178.98 146.48 159.23 69.12 203.89"/></g><polygon class="cls-56" points="82.15 206.72 97.64 215.72 109.66 208.78 94.17 199.78 82.15 206.72"/><g class="cls-25"><path d="M110,192.1c2,1.15,2,3,0,4.15a7.92,7.92,0,0,1-7.16,0c-2-1.15-2-3,0-4.14A7.87,7.87,0,0,1,110,192.1Z"/></g><g class="cls-25"><polygon points="116.81 185.46 125.75 190.66 146.95 178.42 138 173.22 116.81 185.46"/></g><g class="cls-2"><polygon class="cls-57" points="121.18 183.45 121.18 184.72 127.38 188.33 127.38 187.05 121.18 183.45"/><polygon class="cls-58" points="127.38 187.05 127.38 188.33 142.08 179.85 142.07 178.57 127.38 187.05"/><polygon class="cls-59" points="121.18 183.45 127.38 187.05 142.07 178.57 135.87 174.97 121.18 183.45"/><polygon class="cls-60" points="121.18 183.45 142.07 178.57 142.07 178.57 135.87 174.97 121.18 183.45"/></g><g class="cls-2"><polygon class="cls-57" points="126.91 184.68 125.8 184.04 125.77 172.58 126.87 173.22 126.91 184.68"/><polygon class="cls-56" points="126.87 173.22 125.77 172.58 135.75 166.82 136.85 167.46 126.87 173.22"/><polygon class="cls-61" points="136.85 167.46 136.88 178.92 126.91 184.68 126.87 173.22 136.85 167.46"/></g><polygon class="cls-62" points="116.86 184.6 115.79 184.3 111.23 161.82 112.3 162.12 116.86 184.6"/><polygon class="cls-63" points="112.3 162.12 111.23 161.82 140.88 144.71 141.94 145 112.3 162.12"/><polygon class="cls-61" points="141.94 145 146.51 167.49 116.86 184.6 112.3 162.12 141.94 145"/><polygon class="cls-64" points="141.15 146.79 145.2 167.04 117.75 182.93 113.54 162.41 141.15 146.79"/><polygon class="cls-65" points="137.63 153.41 140.26 166.6 122.39 176.94 119.65 163.58 137.63 153.41"/><polygon class="cls-64" points="137.64 157.79 137.76 158.38 127.74 164.42 127.64 163.85 137.64 157.79"/><polygon class="cls-64" points="137.4 156.21 137.51 156.8 127.5 162.85 127.39 162.28 137.4 156.21"/><polygon class="cls-64" points="138.4 161.35 138.51 161.94 128.5 167.99 128.39 167.41 138.4 161.35"/><polygon class="cls-64" points="138.15 159.77 138.27 160.36 128.25 166.41 128.15 165.84 138.15 159.77"/><polygon class="cls-65" points="116.21 162.12 116.43 163.24 114.92 164.12 114.69 162.98 116.21 162.12"/><polygon class="cls-65" points="116.89 165.01 117.12 166.12 115.6 167 115.37 165.87 116.89 165.01"/><polygon class="cls-65" points="117.51 168.12 117.73 169.24 116.21 170.11 115.98 168.98 117.51 168.12"/><polygon class="cls-65" points="118.01 170.95 118.23 172.07 116.72 172.94 116.48 171.81 118.01 170.95"/><path class="cls-66" d="M121.21,164.14l4.68-2.46,1.17,6-4.68,2.47Zm1.27,5.12,4.19-2.2a1.83,1.83,0,0,0-1.67-1.4,1.57,1.57,0,0,0,0-.68c-.13-.68-.67-1-1.21-.71a1.68,1.68,0,0,0-.74,1.74,1.23,1.23,0,0,0,.25.54,3.86,3.86,0,0,0-.84,2.71Z"/><path class="cls-67" d="M123.81,164.27c.54-.29,1.08,0,1.21.71a1.57,1.57,0,0,1,0,.68,1.83,1.83,0,0,1,1.67,1.4l-4.19,2.2a3.86,3.86,0,0,1,.84-2.71,1.23,1.23,0,0,1-.25-.54A1.68,1.68,0,0,1,123.81,164.27Z"/><g class="cls-25"><polygon points="126 196.94 135.27 202.32 163.22 186.18 153.95 180.8 126 196.94"/></g><g class="cls-2"><polygon class="cls-62" points="126.34 194.63 126.34 196.14 135.02 201.18 135.02 199.68 126.34 194.63"/><polygon class="cls-58" points="135.02 199.68 135.02 201.18 161.19 186.07 161.19 184.57 135.02 199.68"/><polygon class="cls-59" points="126.34 194.63 135.02 199.68 161.19 184.57 152.51 179.52 126.34 194.63"/></g><polygon class="cls-68" points="129.51 194.51 130.31 194.97 131.31 194.4 130.51 193.93 129.51 194.51"/><polygon class="cls-68" points="130.98 193.67 131.77 194.13 132.78 193.56 131.98 193.09 130.98 193.67"/><polygon class="cls-68" points="132.55 192.81 133.34 193.28 134.35 192.7 133.55 192.24 132.55 192.81"/><polygon class="cls-68" points="134.02 191.97 134.82 192.44 135.82 191.86 135.02 191.4 134.02 191.97"/><polygon class="cls-68" points="135.46 191.15 136.25 191.61 137.26 191.03 136.46 190.57 135.46 191.15"/><polygon class="cls-68" points="136.93 190.31 137.72 190.77 138.73 190.19 137.93 189.73 136.93 190.31"/><polygon class="cls-68" points="138.5 189.45 139.3 189.92 140.3 189.34 139.5 188.88 138.5 189.45"/><polygon class="cls-68" points="139.97 188.61 140.76 189.08 141.77 188.5 140.97 188.04 139.97 188.61"/><polygon class="cls-68" points="141.35 187.88 142.14 188.34 143.14 187.76 142.35 187.3 141.35 187.88"/><polygon class="cls-68" points="142.81 187.04 143.61 187.5 144.61 186.93 143.82 186.46 142.81 187.04"/><polygon class="cls-68" points="144.39 186.18 145.19 186.65 146.19 186.07 145.39 185.6 144.39 186.18"/><polygon class="cls-68" points="145.86 185.34 146.66 185.81 147.66 185.23 146.86 184.76 145.86 185.34"/><polygon class="cls-68" points="147.3 184.52 148.09 184.98 149.09 184.41 148.3 183.94 147.3 184.52"/><polygon class="cls-68" points="148.76 183.68 149.56 184.14 150.56 183.56 149.77 183.1 148.76 183.68"/><polygon class="cls-68" points="150.34 182.82 151.14 183.29 152.14 182.71 151.34 182.25 150.34 182.82"/><polygon class="cls-68" points="151.81 181.98 152.6 182.45 153.6 181.87 152.81 181.41 151.81 181.98"/><polygon class="cls-68" points="131.09 195.4 131.88 195.86 132.88 195.28 132.09 194.82 131.09 195.4"/><polygon class="cls-68" points="132.56 194.56 133.35 195.02 134.36 194.44 133.56 193.98 132.56 194.56"/><polygon class="cls-68" points="134.13 193.7 134.93 194.16 135.93 193.59 135.13 193.12 134.13 193.7"/><polygon class="cls-68" points="135.6 192.86 136.4 193.32 137.4 192.75 136.6 192.28 135.6 192.86"/><polygon class="cls-68" points="137.04 192.04 137.83 192.5 138.83 191.92 138.04 191.46 137.04 192.04"/><polygon class="cls-68" points="138.5 191.2 139.3 191.66 140.3 191.08 139.51 190.62 138.5 191.2"/><polygon class="cls-68" points="140.08 190.34 140.88 190.8 141.88 190.23 141.08 189.76 140.08 190.34"/><polygon class="cls-68" points="141.55 189.5 142.34 189.96 143.34 189.38 142.55 188.92 141.55 189.5"/><polygon class="cls-68" points="142.93 188.77 143.72 189.23 144.72 188.65 143.93 188.19 142.93 188.77"/><polygon class="cls-68" points="144.39 187.93 145.19 188.39 146.19 187.81 145.4 187.35 144.39 187.93"/><polygon class="cls-68" points="145.97 187.07 146.76 187.53 147.77 186.96 146.97 186.49 145.97 187.07"/><polygon class="cls-68" points="147.44 186.23 148.23 186.69 149.24 186.11 148.44 185.65 147.44 186.23"/><polygon class="cls-68" points="148.87 185.41 149.67 185.87 150.68 185.29 149.88 184.83 148.87 185.41"/><polygon class="cls-68" points="150.34 184.57 151.14 185.03 152.14 184.45 151.35 183.99 150.34 184.57"/><polygon class="cls-68" points="151.92 183.71 152.72 184.17 153.72 183.59 152.92 183.13 151.92 183.71"/><polygon class="cls-68" points="153.39 182.87 154.18 183.33 155.18 182.75 154.39 182.29 153.39 182.87"/><polygon class="cls-68" points="132.57 196.34 133.36 196.8 134.36 196.22 133.57 195.76 132.57 196.34"/><polygon class="cls-68" points="134.03 195.5 134.83 195.96 135.83 195.38 135.03 194.92 134.03 195.5"/><polygon class="cls-68" points="135.61 194.64 136.4 195.1 137.41 194.53 136.61 194.06 135.61 194.64"/><polygon class="cls-68" points="137.08 193.8 137.87 194.26 138.88 193.69 138.08 193.22 137.08 193.8"/><polygon class="cls-68" points="138.51 192.98 139.31 193.44 140.31 192.86 139.52 192.4 138.51 192.98"/><polygon class="cls-68" points="139.98 192.14 140.78 192.6 141.78 192.02 140.98 191.56 139.98 192.14"/><polygon class="cls-68" points="141.56 191.28 142.35 191.75 143.36 191.17 142.56 190.7 141.56 191.28"/><polygon class="cls-68" points="143.03 190.44 143.82 190.91 144.82 190.32 144.03 189.86 143.03 190.44"/><polygon class="cls-68" points="144.4 189.71 145.2 190.17 146.2 189.59 145.41 189.13 144.4 189.71"/><polygon class="cls-68" points="145.87 188.87 146.67 189.33 147.67 188.75 146.87 188.29 145.87 188.87"/><polygon class="cls-68" points="147.45 188.01 148.24 188.47 149.24 187.9 148.45 187.43 147.45 188.01"/><polygon class="cls-68" points="148.91 187.17 149.71 187.63 150.71 187.06 149.92 186.59 148.91 187.17"/><polygon class="cls-68" points="150.35 186.35 151.15 186.81 152.15 186.23 151.35 185.77 150.35 186.35"/><polygon class="cls-68" points="151.82 185.51 152.62 185.97 153.62 185.39 152.82 184.93 151.82 185.51"/><polygon class="cls-68" points="153.4 184.65 154.19 185.11 155.19 184.54 154.4 184.07 153.4 184.65"/><polygon class="cls-68" points="154.87 183.81 155.66 184.27 156.66 183.69 155.87 183.23 154.87 183.81"/><polygon class="cls-68" points="133.92 197.23 134.72 197.69 135.72 197.11 134.92 196.65 133.92 197.23"/><polygon class="cls-68" points="135.39 196.39 136.19 196.85 137.19 196.27 136.39 195.81 135.39 196.39"/><polygon class="cls-68" points="136.96 195.53 137.76 195.99 138.76 195.41 137.97 194.95 136.96 195.53"/><polygon class="cls-68" points="138.43 194.69 139.23 195.15 140.23 194.57 139.44 194.11 138.43 194.69"/><polygon class="cls-68" points="139.87 193.87 140.66 194.33 141.67 193.75 140.87 193.29 139.87 193.87"/><polygon class="cls-68" points="141.34 193.03 142.13 193.49 143.14 192.91 142.34 192.45 141.34 193.03"/><polygon class="cls-68" points="142.91 192.17 143.71 192.63 144.71 192.05 143.91 191.59 142.91 192.17"/><polygon class="cls-68" points="144.38 191.33 145.18 191.79 146.18 191.21 145.38 190.75 144.38 191.33"/><polygon class="cls-68" points="145.76 190.59 146.55 191.06 147.56 190.48 146.76 190.02 145.76 190.59"/><polygon class="cls-68" points="147.22 189.76 148.02 190.22 149.03 189.64 148.23 189.18 147.22 189.76"/><polygon class="cls-68" points="148.8 188.9 149.6 189.36 150.6 188.78 149.8 188.32 148.8 188.9"/><polygon class="cls-68" points="150.27 188.06 151.06 188.52 152.07 187.94 151.27 187.48 150.27 188.06"/><polygon class="cls-68" points="151.71 187.24 152.5 187.7 153.51 187.12 152.71 186.66 151.71 187.24"/><polygon class="cls-68" points="153.18 186.4 153.97 186.86 154.97 186.28 154.18 185.81 153.18 186.4"/><polygon class="cls-68" points="154.75 185.54 155.55 186 156.55 185.42 155.75 184.96 154.75 185.54"/><polygon class="cls-68" points="156.22 184.7 157.01 185.16 158.02 184.58 157.22 184.12 156.22 184.7"/><path class="cls-50" d="M109.1,191.7c1.5.87,1.51,2.28,0,3.15a6,6,0,0,1-5.43,0c-1.5-.87-1.51-2.27,0-3.14A6,6,0,0,1,109.1,191.7Z"/><polygon class="cls-50" points="101.33 187.21 102.55 193.48 110.22 193.48 111.45 187.05 101.33 187.21"/><path class="cls-69" d="M110,185c2,1.14,2,3,0,4.14a7.86,7.86,0,0,1-7.16,0c-2-1.15-2-3,0-4.14A7.84,7.84,0,0,1,110,185Z"/><path class="cls-28" d="M108.85,185.53c1.46.84,1.46,2.2,0,3a5.74,5.74,0,0,1-5.23,0c-1.45-.84-1.45-2.19,0-3A5.8,5.8,0,0,1,108.85,185.53Z"/><path class="cls-28" d="M102.61,187.43s-3.73-4.72-.06-13.2c0,0,3.22,4.06,1.38,14.48A3,3,0,0,1,102.61,187.43Z"/><path class="cls-29" d="M102.59,174.29c.07,3.27.26,8.94.71,14a2.1,2.1,0,0,0,.63.42C105.65,179,103,174.81,102.59,174.29Z"/><path class="cls-28" d="M104.45,186.86s-3-5.22,1.9-13.07c0,0,2.58,4.5-.8,14.52A3,3,0,0,1,104.45,186.86Z"/><path class="cls-29" d="M106.09,173.78c-.41,3.25-1.08,8.88-1.38,13.95a2.11,2.11,0,0,0,.56.51C108.41,178.89,106.38,174.36,106.09,173.78Z"/><path class="cls-28" d="M104.64,188.92s-4.48-1.58-5.59-8.79c0,0,3.86,1.36,7,9.09A2.34,2.34,0,0,1,104.64,188.92Z"/><path class="cls-29" d="M99.1,180.15c1.42,2.16,3.93,5.86,6.35,9a1.65,1.65,0,0,0,.6,0C103.12,182,99.57,180.35,99.1,180.15Z"/><path class="cls-28" d="M106.62,188.22s-2.39-2.74-.43-8c0,0,2.07,2.36,1.27,8.7A1.77,1.77,0,0,1,106.62,188.22Z"/><path class="cls-29" d="M106.22,180.29c.14,2,.42,5.39.84,8.42a1.16,1.16,0,0,0,.4.24C108.2,183,106.46,180.59,106.22,180.29Z"/><path class="cls-28" d="M107.69,186.46s-2.29-4.15,1.66-10.28c0,0,2,3.59-.81,11.45A2.3,2.3,0,0,1,107.69,186.46Z"/><path class="cls-29" d="M109.38,176.24c-.37,2.55-1,7-1.27,11a1.82,1.82,0,0,0,.43.41C111.14,180.3,109.6,176.69,109.38,176.24Z"/><path class="cls-28" d="M108.28,187.24s-.55-3.5,3.79-6.79c0,0,.48,3-3.49,7.82A1.69,1.69,0,0,1,108.28,187.24Z"/><path class="cls-29" d="M112.08,180.5c-.92,1.69-2.46,4.65-3.7,7.38a1.31,1.31,0,0,0,.2.39C112.28,183.8,112.12,180.87,112.08,180.5Z"/><polygon class="cls-70" points="86.65 207.31 87.03 207.53 90.67 205.42 90.3 205.21 86.65 207.31"/><polygon class="cls-70" points="88.11 208.16 88.49 208.38 93.9 205.25 93.53 205.03 88.11 208.16"/><polygon class="cls-70" points="87.39 207.74 87.76 207.95 92.49 205.22 92.12 205 87.39 207.74"/><polygon class="cls-70" points="91.91 203.42 95.05 205.24 97.84 203.63 94.7 201.81 91.91 203.42"/><polygon class="cls-70" points="89.58 209.01 89.95 209.23 94.69 206.49 94.31 206.27 89.58 209.01"/><polygon class="cls-70" points="88.85 208.58 89.22 208.8 92.87 206.7 92.49 206.48 88.85 208.58"/><polygon class="cls-70" points="85.92 206.88 86.29 207.1 91.7 203.98 91.33 203.76 85.92 206.88"/><polygon class="cls-70" points="93.82 211.5 94.19 211.72 97.84 209.61 97.47 209.4 93.82 211.5"/><polygon class="cls-70" points="95.28 212.35 95.66 212.57 101.07 209.44 100.69 209.23 95.28 212.35"/><polygon class="cls-70" points="94.55 211.93 94.93 212.14 99.66 209.41 99.29 209.19 94.55 211.93"/><polygon class="cls-70" points="96.75 213.2 97.12 213.42 101.86 210.68 101.48 210.47 96.75 213.2"/><polygon class="cls-70" points="96.02 212.78 96.39 212.99 100.03 210.89 99.66 210.67 96.02 212.78"/><polygon class="cls-70" points="93.09 211.07 93.46 211.29 98.87 208.17 98.5 207.95 93.09 211.07"/><polygon class="cls-70" points="92.64 205.47 108.13 214.47 120.14 207.53 104.65 198.53 92.64 205.47"/><polygon class="cls-71" points="96.74 205.85 97.11 206.06 100.76 203.96 100.39 203.74 96.74 205.85"/><polygon class="cls-71" points="98.2 206.7 98.58 206.92 103.99 203.79 103.61 203.57 98.2 206.7"/><polygon class="cls-71" points="97.47 206.27 97.84 206.49 102.58 203.76 102.2 203.54 97.47 206.27"/><polygon class="cls-71" points="102 201.96 105.14 203.78 107.93 202.17 104.79 200.35 102 201.96"/><polygon class="cls-71" points="99.67 207.55 100.04 207.76 104.78 205.03 104.4 204.81 99.67 207.55"/><polygon class="cls-71" points="98.93 207.12 99.31 207.34 102.95 205.24 102.58 205.02 98.93 207.12"/><polygon class="cls-71" points="96.01 205.42 96.38 205.64 101.79 202.52 101.42 202.3 96.01 205.42"/><path class="cls-49" d="M157.41,253.08a.86.86,0,0,0,0,1.63,3.11,3.11,0,0,0,2.82,0l18.72-10.81c.79-.45.79-1.19,0-1.63a3.08,3.08,0,0,0-2.82,0Z"/><path class="cls-72" d="M171.7,233.56v0h0a1.18,1.18,0,0,0-.7-1,3.74,3.74,0,0,0-3.43,0,1.13,1.13,0,0,0-.7,1.18,1.11,1.11,0,0,1,0-.17h0l0,13.89a.59.59,0,0,0,0,.14.29.29,0,0,1,0,.09,0,0,0,0,1,0,0s0,0,0,0a1.47,1.47,0,0,0,.06.14l0,.06,0,.05,0,0,.15.16h0l.2.15a1.05,1.05,0,0,0,.11.07l0,0a2.83,2.83,0,0,0,.53.23l.21.06.12,0,.12,0,.32,0,.26,0h.5l.23,0,.25,0,.08,0h0l.15,0,.3-.1a3.84,3.84,0,0,0,.35-.18,1.19,1.19,0,0,0,.71-1Zm-4.26.91h0l.11.09Zm-.55-.64a1.51,1.51,0,0,0,.09.18,1.51,1.51,0,0,1-.09-.18Zm.14.27.13.13a.74.74,0,0,1-.12-.13Z"/><path class="cls-73" d="M166.51,236.6a1.53,1.53,0,0,0-.16-.26s0,0,0,0l-.23-.27-.21-.22-.14-.14c-.18-.18-.39-.37-.63-.58L165,235l-.72-.59-.13-.1-1-.72-.26-.19-.95-.67-.19-.13-1.19-.8-.37-.24-1.15-.74-.2-.13-1.39-.85-.39-.24-1.51-.88c-.75-.44-1.48-.85-2.19-1.24l-.12-.06-1.93-1-.17-.09-1.7-.83-.16-.07q-.81-.37-1.5-.66l-.11-.05-.9-.35-.18-.06c-.27-.1-.52-.18-.74-.24l-.14,0a2.37,2.37,0,0,0-.34-.08l-.19,0h-.33l-.18.05h0l20.43-11.88h0l.05,0h.54l.07,0,.38.08.08,0h0c.23.06.49.15.76.24l.15.06q.43.15.93.36h0l0,0c.47.19,1,.41,1.51.66l.2.1c.52.24,1.06.51,1.63.79l.27.14c.58.3,1.18.61,1.8,1l.24.13c.69.38,1.41.78,2.15,1.21l1.5.88.4.24,1.39.85.21.14,1.14.73.37.24,1.18.8.22.15.91.64.29.21.93.7.18.14.66.54.19.16c.23.19.43.38.61.55l0,0,.15.16.16.16,0,0h0a1.19,1.19,0,0,1,.15.18l.05.07h0v0l.06.09,0,0,0,0,0,0s0,0,0,0a.08.08,0,0,1,0,0v0l0,0v.09a.2.2,0,0,1-.1.19L166.46,237a.21.21,0,0,0,.11-.19.48.48,0,0,0-.06-.21Z"/><path class="cls-43" d="M155.57,228.71c-6.07-3.51-11-5.56-11-4.58s4.91,4.61,11,8.12,11,5.55,11,4.57S161.65,232.21,155.57,228.71Z"/><path class="cls-41" d="M166.66,237l20.24-11.83c.75-.53,2.47-8.53,3.82-15.52,1.5-7.76,2.21-14.57,1.58-15.22l-20.44,14.46c.64.65-.08,7.46-1.58,15.23C168.94,231.06,167.41,236.43,166.66,237Z"/><path class="cls-43" d="M171.86,208.85c-.63-.65-2.35,5.12-3.85,12.88S165.8,236.3,166.43,237s2.35-5.13,3.85-12.88S172.5,209.5,171.86,208.85Z"/><path class="cls-41" d="M192.49,195.07a1.5,1.5,0,0,0,0-.22.5.5,0,0,1,0-.12s0,0,0,0,0,0,0-.06,0,0,0,0,0,0,0-.05,0,0,0,0v0a0,0,0,0,1,0,0v0l0,0h0l0,0,0,0h-.13l0,0h0l-20.44,14.46h0a.19.19,0,0,1,.11,0h0a.14.14,0,0,1,.1,0h0l0,0v0h0s0,0,0,0v0l0,0s0,0,0,0,0,0,0,.06,0,0,0,.05,0,.08,0,.12l0,.21c.21,2-.5,7.94-1.78,14.56-1.34,7-2.87,12.35-3.62,12.88l20.24-11.83c.75-.53,2.47-8.53,3.82-15.52C192,203,192.71,197.07,192.49,195.07Z"/><path class="cls-7" d="M57.46,269.65c3.4,2,3.41,5.14,0,7.11a13.52,13.52,0,0,1-12.26,0c-3.41-2-3.43-5.15,0-7.11A13.5,13.5,0,0,1,57.46,269.65Z"/><polygon class="cls-7" points="40.83 258.98 42.66 273.2 59.99 273.79 61.84 258.98 40.83 258.98"/><path class="cls-74" d="M58.74,254.68c4.11,2.38,4.14,6.23,0,8.61a16.4,16.4,0,0,1-14.85,0c-4.12-2.38-4.15-6.23,0-8.61A16.37,16.37,0,0,1,58.74,254.68Z"/><path class="cls-75" d="M57.68,255.3c3.52,2,3.55,5.33,0,7.37a14,14,0,0,1-12.72,0c-3.53-2-3.55-5.34,0-7.37A14,14,0,0,1,57.68,255.3Z"/><path class="cls-76" d="M53,259.65a1.79,1.79,0,0,1-1.9,1.65h0a1.79,1.79,0,0,1-1.9-1.65V229.82a1.79,1.79,0,0,1,1.9-1.64h0a1.79,1.79,0,0,1,1.9,1.64Z"/><path class="cls-77" d="M53.92,230s3.58,2.91-9.18,7.61-17,7.48-17.24,10.45-2.68-20.59,16.57-21.68C44.07,226.41,50.78,226,53.92,230Z"/><path class="cls-78" d="M53.81,232.54c-3.36-2.16-7.91-1.88-7.91-1.88-10.52.59-14.55,7.89-16,13.91,2.47-1.92,7.07-4.07,14.85-6.93C50.4,235.55,52.84,233.82,53.81,232.54Z"/><path class="cls-77" d="M48.76,228.8s-3.58,2.9,9.18,7.6,17,7.49,17.23,10.46,2.69-20.59-16.56-21.68C58.61,225.18,51.89,224.77,48.76,228.8Z"/><path class="cls-78" d="M57.94,236.4c7.67,2.83,12.25,5,14.75,6.86-1.55-5.93-5.64-12.91-15.91-13.49a15.26,15.26,0,0,0-7.73,1.76C50.13,232.79,52.61,234.44,57.94,236.4Z"/><path class="cls-78" d="M49.27,231.44s1.69,3.3,7.54-5.93,8.75-12.09,11.13-11.77-15.72-5.59-19.84,9.35C48.1,223.09,46.64,228.29,49.27,231.44Z"/><path class="cls-77" d="M52.28,228.1s3.72-.25-1.25,9.53-6,13.75-4.45,15.64-12.89-10.71-2.1-21.91C44.48,231.36,48.22,227.44,52.28,228.1Z"/><path class="cls-77" d="M53,230.71s-1,3.8-8.19-5S34.4,214.39,32.2,215.14s14-8.63,20.47,6.52C52.67,221.66,55,226.93,53,230.71Z"/><path class="cls-78" d="M51.09,231.39a14.1,14.1,0,0,0-1-7.27c-3.66-8.52-10.37-9.27-15.15-8.45,2.14,1.24,5.14,4.3,9.83,10.05C47.92,229.53,49.87,231,51.09,231.39Z"/><g class="cls-25"><path d="M119.65,300.14c-8.43,4.87-8.48,12.76-.1,17.63s22,4.87,30.44,0,8.47-12.76.1-17.63S128.08,295.27,119.65,300.14Z"/></g><g class="cls-25"><path d="M349.14,265.15c-8.43,4.87-8.48,12.76-.1,17.63s22,4.87,30.44,0,8.47-12.76.1-17.63S357.57,260.28,349.14,265.15Z"/></g><g class="cls-25"><path d="M244.59,191.49c-8.44,4.87-8.48,12.76-.1,17.63s22,4.86,30.43,0,8.48-12.76.11-17.63S253,186.62,244.59,191.49Z"/></g><path class="cls-79" d="M115.58,253a24.43,24.43,0,0,0-2.37,3.62c-.19.75-1.07,3.93.52,6.07.85,1.15,1.31-.49,1.51-2.61a3.06,3.06,0,0,1,1.21-2.74,11,11,0,0,0,2.3-3.07C119.13,253.48,115.58,253,115.58,253Z"/><path class="cls-80" d="M127.05,221.13s-4.06-.88-5.61,7.19-1.49,11.2-2.63,14-4.16,11.76-4.16,11.76,2.57.09,3.57,2c0,0,6.46-11.14,7.69-16S131.3,223.28,127.05,221.13Z"/><path class="cls-81" d="M118.81,242.3c1.14-2.78,1.21-5.89,2.63-14,1.18-6.65,3.15-7.29,4.53-7.52,3.86,2.46-1,14.69-2.19,19.48-.93,3.65-4.64,11.14-6.47,14.71a4.71,4.71,0,0,0-2.66-.93S117.66,245.07,118.81,242.3Z"/><path class="cls-72" d="M134.56,300.9s1.13,2.63,0,3.31-1.27,1.43-3.08,1.28-1.54.45-2.16,1.12-7,3.46-8.21,2.11,2.18-2.94,3.38-3.72,4.06-3.95,4.14-4.85S134.56,300.9,134.56,300.9Z"/><path class="cls-82" d="M134.56,304.21c-1.12.68-1.27,1.43-3.08,1.28s-1.54.45-2.16,1.12-7,3.46-8.21,2.11a1,1,0,0,1,.11-1.43l1.87.33c1.88.33,4.3-1.83,5.23-2.64s2.11-.49,3.73-.76,1.39-2.73,1.39-2.73l1.19-.42C134.86,301.66,135.52,303.64,134.56,304.21Z"/><path class="cls-72" d="M146,309.45s.48,3.1-.72,4.78-3.82,4.6-5,4.47-1.32-.65-1.32-.65a11.21,11.21,0,0,1,.36-5,17.25,17.25,0,0,0,.9-3.56Z"/><path class="cls-82" d="M145.24,314.23c-1.05,1.48-3.21,3.91-4.48,4.39,1.68-2.17-.84-1.72,1.05-2.75,2.62-1.42.95-2.6,2.12-2.93s.3-3.21.3-3.21l.63-.28H146S146.44,312.55,145.24,314.23Z"/><path class="cls-83" d="M132.13,258.86s-5.36-.59-7.16-4.56a132.33,132.33,0,0,0,.6,18.93c1.09,10.17,2,28.06,2,28.06s3.48,3.27,7.07,0c0,0,1-11.81,0-18.35,0,0,.67-11.46-.45-17.19S132.13,258.86,132.13,258.86Z"/><path class="cls-84" d="M127.55,301.29s-.89-17.89-2-28.06a146.45,146.45,0,0,1-.6-19.94,10.75,10.75,0,0,0,6.18,5.38c-.13,3.89-.49,15.33-.43,19.13.05,3.62.76,18.6,1.06,24.9A5.7,5.7,0,0,1,127.55,301.29Z"/><path class="cls-83" d="M144.75,258.24s.52,5.95.63,15.19.78,12.72,1,14.14,1,16.88.56,21.39c0,0-2.92,4.51-7.51,0,0,0-.79-15.85-1.57-19.46s-5.18-21.13-7-27.43c-.78-2.78-1-3.83-1-3.83S137.69,263.81,144.75,258.24Z"/><path class="cls-84" d="M139.44,309s-.79-15.85-1.57-19.46-5.18-21.13-7-27.43a14.53,14.53,0,0,0-2.6-4.91s5.09,3.56,9.48,3.55c.2,1.36,2.06,14.3,2.5,20S144.57,306,143.54,311A5.72,5.72,0,0,1,139.44,309Z"/><path class="cls-80" d="M135.33,221.76s8.4,3.82,8.63,4.45,2.43,2-.29,9.4c0,0-3.72,8-1.33,15.76a50.27,50.27,0,0,0,2.55,6.81s-3.4,5.57-13.81,2.26c-2.1-.67-5.71-3.33-6.86-5.55a53.45,53.45,0,0,0-1-14.51c-1.63-7.77-2.81-17.89,1.57-19.44C124.82,220.94,125.89,219.52,135.33,221.76Z"/><path class="cls-79" d="M136,216s-2.34,3.93-.23,6.41c1.17,1.39-1.29,4.92-5.78,4.85,0,0-2-.4-1.84-1.14.38-1.66-.32-2.56-1.09-3.79S136,216,136,216Z"/><path class="cls-85" d="M135.79,222.45a1.27,1.27,0,0,1,.26.58c-1.76-1.63-5-1.61-5-1.61l4-4.89.42-.23.15.41C135.12,217.94,134.21,220.6,135.79,222.45Z"/><path class="cls-86" d="M128.17,226.16c.29-2.63-.32-2.56-1.09-3.79-.21-.34.37-1,1.32-1.7a3,3,0,0,1,.76.79,8,8,0,0,1,1.78,5.8,4.76,4.76,0,0,1-.93,0C129.47,227.24,128.07,227,128.17,226.16Z"/><path class="cls-79" d="M136.85,213.86s-.86,5.1-4.23,7.54c-3,2.17-6.51,3.66-7.34,0-.65-2.9-2.42-10.27.1-11.88,3.24-2.07,4.34-4.5,8.26-3.25C133.64,206.29,138.12,208.11,136.85,213.86Z"/><path class="cls-87" d="M136.85,213.86a11.3,11.3,0,0,1-4.21,7.6,14.41,14.41,0,0,1-2.85,1.69A13.79,13.79,0,0,0,132.7,220c1.19-1.52-1.91-.81.06-4.64.66-1.31-2.82.49-3.62.51-4.74.09-4.51-2.64-4.65-3.78a7.39,7.39,0,0,1,.33-1.42l.41-.88.15-.24a16.05,16.05,0,0,1,1.46-1.76c2,0,7.8-.18,7.92-.15s1.13,1.32,2.11,2.55A7.86,7.86,0,0,1,136.85,213.86Z"/><path class="cls-88" d="M135,218.84s3.68-3.69,2.13-8.68a5.92,5.92,0,0,0-5.43-4.37,6.76,6.76,0,0,0-7.39,4.77c-.45,1.39.11,5,5.38,3.34.76-.24,2.32-1.4,3.06-.79a2.78,2.78,0,0,1,.58,2.88c-.26.91.54,1,.64.78s1-2.83,2-1.86S135.08,218.66,135,218.84Z"/><path class="cls-89" d="M135,218.84c.09-.18,1.9-3.06,1-3.93s-1.92,1.66-2,1.86-.9.13-.64-.78a2.78,2.78,0,0,0-.58-2.88c-.67-.56-2,.35-2.83.7a6.78,6.78,0,0,0,2.49-3.11,5.27,5.27,0,0,1,3-3.38,6.06,6.06,0,0,1,1.72,2.84C138.67,215.15,135,218.84,135,218.84Z"/><path class="cls-81" d="M124.22,254.89a53.45,53.45,0,0,0-1-14.51c-1.36-6.48-2.39-14.57-.16-18,1.1.87,3.3,2.86,3.9,5.33.8,3.33,4.71,5.07,6.61,5.44s3,3.38,2.13,8.23c-.7,4,1.08,14.31,2.71,20a18.54,18.54,0,0,1-7.36-1C129,259.77,125.37,257.11,124.22,254.89Z"/><rect class="cls-90" x="79.4" y="263.79" width="69.6" height="1.81" transform="translate(-173.53 246.89) rotate(-63.12)"/><path class="cls-91" d="M101.57,292s-3.47-2.68-5.62-2.13-3.57,3.09-5.63,3.35-3.6,3.52-3.6,3.52.22.35,1.57,0,2.64-1.58,4.65-3.16,5.61-2.15,6.34-1.74a4.51,4.51,0,0,1,1.31,1.68Z"/><path class="cls-92" d="M108.9,299s-2.39-6.95-6.65-7.38-8.31-1.25-10.69-.24-3.81,1.66-5.67,2.34-3.69,2-2.58,2.48,3.15,1.5,5.12.06,1.65-1.73,4.12-2.36,2.5-1.13,4-.73,1.65-.17,3.19.47a12.77,12.77,0,0,1,3.24,1.63c1.68,1.1,1.79.71,2.92,1.91s1.06,2.22,1.6,2.54-.19.31,1.42.92S110.43,300.69,108.9,299Z"/><path class="cls-91" d="M106.75,302.93c-.1-.37-2-7.06-2.86-8.75s-1.68-1.43-2.51-1.43-.12,2,1.13,3.95,1.48,4.58,1.76,5.54-1.26,1.14.9,1.56S107.15,304.44,106.75,302.93Z"/><path class="cls-91" d="M111.38,303.94c-.24-.37-4.56-7-6.14-8.56s-2.33-1-3.23-.7.55,2.21,2.6,3.93,3.19,4.48,3.83,5.44-1,1.67,1.52,1.38S112.34,305.45,111.38,303.94Z"/><path class="cls-92" d="M101.92,292.74c-.17,0-3.1-.53-4,.62s0-.42-1.63,2.15-2.42,2.94-3.4,3.56-1.79,1-2,1.9-.76,1.89-.21,2.2a3.69,3.69,0,0,0,1.52.43c.61.09,0,.52,1-.36A13.54,13.54,0,0,0,96,300a21.21,21.21,0,0,1,1.3-2.13,10.12,10.12,0,0,1,1.46-2.16c.8-.9.92-1.2,2-1.58a4.44,4.44,0,0,0,1.46-.79Z"/><path class="cls-92" d="M101.92,292.74c-.11.13-1.65,2.53-1.34,4s-.31-.28.67,2.61.79,3.73.66,4.88-.32,2,.21,2.77,1,1.78,1.59,1.55a3.58,3.58,0,0,0,1.28-.93c.45-.41.42.32.37-1a13.64,13.64,0,0,0-.77-4.3,21.32,21.32,0,0,1-.86-2.34,10.66,10.66,0,0,1-.77-2.49,3.89,3.89,0,0,1,0-2.5c.36-1-1-2.58-1-2.58Z"/><path class="cls-92" d="M105.23,298.2a4.57,4.57,0,0,0,.06,2.73c.51.82-.25-.11,1,1.44a5.79,5.79,0,0,1,1.49,2.83c.17.73.26,1.32.74,1.65s1,.87,1.32.59a2.36,2.36,0,0,0,.57-.85c.18-.35.33.1,0-.71a8.72,8.72,0,0,0-1.43-2.46c-.57-.62-.29-.32-1-1.23a6.89,6.89,0,0,1-1-1.35,2.55,2.55,0,0,1-.57-1.53c0-.71-1.18-1.35-1.18-1.35Z"/><path class="cls-91" d="M96.07,295.82a4.63,4.63,0,0,0-2.63.75c-.66.7,0-.27-1.15,1.33a5.77,5.77,0,0,1-2.36,2.15c-.66.35-1.21.58-1.41,1.13s-.58,1.2-.24,1.42a2.36,2.36,0,0,0,1,.35c.39.08,0,.34.69-.19a8.67,8.67,0,0,0,2-2c.46-.7.24-.37.94-1.32a6.75,6.75,0,0,1,1-1.33c.56-.55.65-.74,1.33-.93s1-1.48,1-1.48Z"/><path class="cls-92" d="M92.52,296.09c-.1,0-1.84-.68-2.72-.29s.14-.23-1.56.8a5.66,5.66,0,0,1-3,1.1c-.74.08-1.34.09-1.73.53s-1,.89-.76,1.22a2.54,2.54,0,0,0,.77.69c.33.22-.14.31.71.09a9,9,0,0,0,2.62-1.1,14.75,14.75,0,0,1,1.36-.87,6.5,6.5,0,0,1,1.47-.84,2.56,2.56,0,0,1,1.59-.37c.7.08,1.49-1,1.49-1Z"/><path class="cls-91" d="M98.09,292.57s-4.87-.46-5.54,1.36-2.37,3.67-3.94,4-2.74,1.39-3.48,1.5-2,0-2.17.48-1.08.8-.45,1.6a2.65,2.65,0,0,0,1.69,1c.5.18.87,0,1.57-.53a10.7,10.7,0,0,1,2.28-1.72A12.79,12.79,0,0,1,90.36,299a11,11,0,0,0,2.17-1.05c1-.57,0-.14,1.84-1.26s1.78-1.09,2.42-1.95A7.61,7.61,0,0,1,98.41,293C98.68,292.84,98.09,292.57,98.09,292.57Z"/><path class="cls-91" d="M101,293.76s-3.49,1.56-3.25,3.06a5,5,0,0,1-1.17,4.2c-1,.8-1.33,2-1.79,2.35s-1.33.75-1.29,1.16-.44,1,.31,1.26a2,2,0,0,0,1.52,0c.41-.07.59-.34.86-1a9.06,9.06,0,0,1,.89-2.05,11,11,0,0,1,1.1-1.73,8.71,8.71,0,0,0,1.08-1.55c.47-.78-.08-.08.77-1.56s.78-1.42.89-2.25a6,6,0,0,1,.44-1.81C101.52,293.73,101,293.76,101,293.76Z"/><path class="cls-92" d="M101.92,292.74s1.29,3.43-.14,5.46-1.55,3-1.58,3.56.34,1.21.27,1.89-.28.9.31,1.71,1.11.95,1,1.38a5.32,5.32,0,0,1-.86,1.8c-.41.35-1.4.24-1.57.27s-1.38.48-1.31-.37-.5-1-.35-2.25.12-.71.38-2.29a12.78,12.78,0,0,1,.79-2.84,20.45,20.45,0,0,1,.85-2.11c.68-1.78.18-1.63.64-2.31a3,3,0,0,0,.57-2.07c-.12-.48-.33-1.34.09-1.58A2.3,2.3,0,0,1,101.92,292.74Z"/><path class="cls-93" d="M126.42,246.64s-3-.77-3.44-1.48-1.5-.38-1,.42a4.68,4.68,0,0,0,1.52,1.28s-3.66-.43-3.8-1.55-.87,2.77.64,3.78,3,2.4,7,.33A3.48,3.48,0,0,0,126.42,246.64Z"/><path class="cls-81" d="M142.23,226s-3.28-.48-3.86,4.5-1.59,13.31-1.59,13.31l-.47,1.22-10.45,1.13s2,2.25.14,4.2c0,0,13.78,2.41,16.42-2.26C142.42,248.12,147.63,226.15,142.23,226Z"/><path class="cls-80" d="M142.42,248.12c-2.64,4.67-16.42,2.26-16.42,2.26a2.62,2.62,0,0,0,.78-2c3.94-.12,10.67-.42,13-1.13,3.11-.93,2.58-18.38,2.47-21.18C147.6,226.26,142.42,248.12,142.42,248.12Z"/><path class="cls-79" d="M117.57,255.62s-.22,2.12-.39,3.35-.82,2-1,1.77.14-3.92-1.15-3.67C114.35,257.2,117.45,256.21,117.57,255.62Z"/><path class="cls-94" d="M245.55,112.71s-.33-3.45,5.11-2.24S263.6,114,263.6,114l11.49-6.43s2.24,1.15,2.23,2.87c0,0-9.18,9.07-14.15,9.58C263.17,120.05,241.37,120.71,245.55,112.71Z"/><path class="cls-79" d="M275.53,107.87s1.21-2.66,2.25-3.44a5.13,5.13,0,0,1,2.31-1.06c.36,0-.69,1.08-1,1.43s-.55,1.54,2.22.25,2.25-.72,2.2-.46-2.86,4.59-6.17,5.56A4.18,4.18,0,0,0,275.53,107.87Z"/><path class="cls-95" d="M263.17,120.05c5-.51,14.15-9.58,14.15-9.58a2.28,2.28,0,0,0-.43-1.28c-2.06,1.63-8.09,6.36-11.79,8.69-4.52,2.84-19.44-4.44-19.47-4.58C244.72,119.82,263.17,120.05,263.17,120.05Z"/><path class="cls-72" d="M255.19,191s2.29.35,1.73,1.67-3.19,3.32-3.53,4.16-2.5,3.81-3.19,3.53-2.5.14-2.29-3.26S252.14,190.83,255.19,191Z"/><path class="cls-72" d="M259.56,203.45s-1.11,3.26,1.66,4,1.94-1,8,.55,6.73-1.59,6.59-2.29-4.16-1.94-5.48-2.28-3.81-1-3.81-1h-7.15Z"/><path class="cls-80" d="M248.16,146.24s0,19.68,0,21.89-2.47,19.69-1,27.31c0,0,4.29,4.31,8.08,0,0,0,1.22-21.86,2.32-26.79s.72-20,.72-20Z"/><path class="cls-80" d="M255.69,149s1,12.71,2,25.31c0,0,.63,25,1.22,28.62,0,0,8.07,2,8.87-1.8,0,0-.2-22,0-26.61s1.31-19-.51-26.43S255.69,149,255.69,149Z"/><path class="cls-81" d="M258.9,203c-.59-3.6-1.22-28.62-1.22-28.62-.68-8.48-1.45-18.42-1.82-23.09l5.47,1.06A86.94,86.94,0,0,1,264,177.45c-.42,10.94-.6,21.72-.66,26A20.75,20.75,0,0,1,258.9,203Z"/><path class="cls-81" d="M247.14,195.44c-1.49-7.62,1-25.09,1-27.31s0-20,0-21.75l4.33,3.33s1.38,14.07,0,22.09c-1.25,7.29-.44,21.48-1.05,25.55A6.88,6.88,0,0,1,247.14,195.44Z"/><path class="cls-94" d="M247,110.49s-4.16,2.08-1.8,9.15,4,11.65,3.87,14.28-.8,12.39-1.36,14.19c0,0-.31,3,11,4.56,0,0,10.19,1.18,8.4-6s-.42-15.08-.14-17.85,1.94-8.33-5-12.07S251.39,110.22,247,110.49Z"/><path class="cls-79" d="M251.88,107s.44,3.7-.83,6c-1.15,2.1,7.56,4,7.76,2.07a8.35,8.35,0,0,1,.45-7.16C260.36,105.94,251.88,107,251.88,107Z"/><path class="cls-85" d="M251.09,113.14a10.83,10.83,0,0,0,.88-5.37l6.36,3.16h0c-.24.06-4.53,1.15-5.46,4.24C251.57,114.64,250.68,113.9,251.09,113.14Z"/><path class="cls-79" d="M261.05,97.19a15.85,15.85,0,0,1,1.08,6.24c-.29,3.11.17,3.74,0,5.12a3.37,3.37,0,0,1-.71,2c-.95.92-2.93,1.27-5.62.29-3.24-1.19-6.65-5.65-5.27-9.65S256.17,93.92,261.05,97.19Z"/><path class="cls-87" d="M250.66,105.56c1.3-3.61,4.52-7.93,4.49-8.16a10.72,10.72,0,0,1,2.28-1.53,7.31,7.31,0,0,1,3.62,1.32,18,18,0,0,1,.67,2.16c-.77.86-2.34,1.85-2.58,2.58a9.3,9.3,0,0,0,.27,5.5c.51,1.15-1.57,2.85-1.13,3.87a.23.23,0,0,1,0,.14,9.92,9.92,0,0,1-2.51-.56A9.38,9.38,0,0,1,250.66,105.56Z"/><path class="cls-89" d="M262,95.81a4.13,4.13,0,0,1-2.36,4.26c-1.7.84-1.55,3.58-1.47,4.09s.58,2.82.38,3.12c-.4.57-1.73-1.21-2.37-1.09-1.61.31-1,1.82.48,3.39s-2.54,2.36-4.44,1c-1-.73-1.37-1.17-2.69-3.8-1.93-3.84-2-8.44,2.51-10.9S259.19,96.93,262,95.81Z"/><path class="cls-88" d="M252.22,110.56c-1-.73-1.37-1.17-2.69-3.8-1.93-3.84-2-8.44,2.51-10.9s7.15,1.07,10,0A4.14,4.14,0,0,1,262,97c-1.44.23-5.37,1-6.38,2.7-1.25,2.08-2.63,1.4-2.53,4s-.54,5.76,3.64,7.17C255.15,111.94,253,111.1,252.22,110.56Z"/><path class="cls-96" d="M258.32,113.92l2.84,2.39s-8.83,2.53-11.42-1.8a2.51,2.51,0,0,1,1.62-3S251.66,115,258.32,113.92Z"/><path class="cls-95" d="M267.06,146.65c-1.81-7.22-.42-15.08-.14-17.85s1.9-8.21-4.8-12c-2.33,1.41-5.7,4.46-3.79,9.61,2.37,6.38,3.15,20.2,3.61,26.18C264.74,152.33,268.16,151.07,267.06,146.65Z"/><g class="cls-2"><polygon class="cls-97" points="288.08 85.16 289.05 85.02 277.07 127.33 276.1 127.47 288.08 85.16"/><polygon class="cls-98" points="286.92 84.45 287.89 84.3 289.05 85.02 288.08 85.16 286.92 84.45"/><polygon class="cls-99" points="288.08 85.16 276.1 127.47 274.93 126.76 286.92 84.45 288.08 85.16"/></g><g class="cls-2"><polygon class="cls-100" points="297.16 88.08 297.12 89.26 295.48 90.13 295.53 88.96 297.16 88.08"/><polygon class="cls-101" points="295.53 88.96 295.48 90.13 280.22 80.6 280.26 79.42 295.53 88.96"/><polygon class="cls-102" points="297.16 88.08 295.53 88.96 280.26 79.42 281.9 78.55 297.16 88.08"/></g><path class="cls-94" d="M257.08,120.77s.94-3.52,6.07-4.12a91.36,91.36,0,0,1,10.34-.51l7-9.59s2.27.09,2.91,1.51c0,0-4.13,10.9-8,13.19C275.4,121.25,256.66,128.91,257.08,120.77Z"/><path class="cls-79" d="M281,106.6a11.1,11.1,0,0,1,.56-3.68,4.58,4.58,0,0,1,1.5-1.73c.28-.16-.16,1.14-.31,1.56s.12,1.47,1.91-.63,1.58-1.44,1.64-1.21-.62,4.85-3,6.89A3.79,3.79,0,0,0,281,106.6Z"/><path class="cls-95" d="M275.4,121.25c3.89-2.29,8-13.19,8-13.19a2.09,2.09,0,0,0-.84-.9c-1.07,2.12-4.25,8.28-6.41,11.59-2.64,4-18.47,3.93-18.54,3.82C258,129,275.4,121.25,275.4,121.25Z"/><polygon class="cls-103" points="13.61 138.15 0 130.24 225.58 0 239.2 7.91 13.61 138.15"/><path class="cls-104" d="M300.5,191.33c-6.34,4.46-17.42,29.34-4.11,32.82,5.56,1.46,19.78-2.7,18.87-12.92C314.72,205.06,308.55,185.66,300.5,191.33Z"/><path class="cls-105" d="M301.12,190.94s-2.86-2.38-2.16-4.36,1.08,2.95,2.77-.8c.19-.44.84,2.66,1.26,1.87a2.16,2.16,0,0,1,1.91-1.07c.79-.1-.8,3,1.63,1.92.1-.05,1.24-.13,1.44.27s-1.07.31-1.59,2.28c-.07.28-1.38,2.34-1.38,2.34Z"/><path class="cls-105" d="M315.31,213.8c-.46-5.13-4.85-22-10.93-23.37-6.16,4.66-13.07,29.13-1,33.45C309.31,222.45,315.93,220.86,315.31,213.8Z"/><path class="cls-104" d="M313,204.79c-6.34,4.46-17.42,29.34-4.1,32.82,5.55,1.45,19.77-2.7,18.87-12.93C327.22,218.51,321.05,199.12,313,204.79Z"/><path class="cls-105" d="M313.62,204.4s-2.86-2.38-2.16-4.36,1.08,3,2.77-.8c.19-.44.84,2.66,1.26,1.86A2.18,2.18,0,0,1,317.4,200c.79-.1-.79,3,1.63,1.92.11-.05,1.24-.13,1.44.26s-1.07.32-1.59,2.28c-.07.29-1.38,2.35-1.38,2.35Z"/><path class="cls-105" d="M327.81,227.26c-.46-5.13-4.84-22-10.93-23.38-6.16,4.66-13.07,29.13-1,33.45C321.81,235.91,328.43,234.32,327.81,227.26Z"/><path class="cls-106" d="M342.5,212.07s4-.53,4.64,3.46A3.83,3.83,0,0,1,342.5,212.07Z"/><path class="cls-79" d="M346.89,213.44a27.6,27.6,0,0,0-1.61,4c-.1.84-1.87,2.34-2.9,2.65s-3.88.87-3.36-.63,1.08-2.1,1.26-3.08a6.7,6.7,0,0,1,1.84-3.07l2.49-1.7Z"/><path class="cls-107" d="M342.12,213.29a11,11,0,0,0-2.43,2.72c-.39,1-.75,2-.46,2.15.71.3,1.13-.68,1.41-1.38s1.41-1.06,2.06-1.25,3-1.72,2.37-3.15l-1-.57Z"/><path class="cls-108" d="M357.45,180.92s-2.93-.49-5,9.15-2.08,10.27-2.08,10.27l-7.86,11.73a4.24,4.24,0,0,1,4.64,3.46s6.52-6.77,7.25-9.21S366.49,182.14,357.45,180.92Z"/><path class="cls-109" d="M347.14,215.53a4.6,4.6,0,0,0-1.24-2.33c4.93-4.48,8.61-13,8.61-13l1.64,2c-.89,2-1.59,3.57-1.76,4.12C353.66,208.76,347.14,215.53,347.14,215.53Z"/><path class="cls-72" d="M363.6,265.42s1.18,2.74,0,3.45-1.33,1.49-3.21,1.33-1.62.48-2.26,1.18-7.32,3.62-8.58,2.2,2.28-3.07,3.53-3.89,4.25-4.12,4.33-5.06S363.6,265.42,363.6,265.42Z"/><path class="cls-82" d="M363.6,268.87c-1.17.71-1.33,1.49-3.21,1.33s-1.62.48-2.26,1.18-7.32,3.62-8.58,2.2c-.43-.48-.3-1,.11-1.49l2,.35c2,.34,4.49-1.92,5.47-2.76s2.2-.52,3.89-.8,1.45-2.85,1.45-2.85l1.25-.44C363.91,266.21,364.61,268.27,363.6,268.87Z"/><path class="cls-72" d="M375.51,274.34s.5,3.25-.75,5-4,4.8-5.18,4.67-1.37-.68-1.37-.68a11.8,11.8,0,0,1,.37-5.27,16.85,16.85,0,0,0,.94-3.72Z"/><path class="cls-82" d="M374.76,279.34c-1.1,1.55-3.35,4.09-4.69,4.58,1.77-2.26-.87-1.79,1.11-2.87,2.73-1.48,1-2.71,2.2-3.06s.33-3.35.33-3.35l.65-.3h1.15S376,277.59,374.76,279.34Z"/><path class="cls-80" d="M361.07,221.49s-5.61-.61-7.48-4.76a137.36,137.36,0,0,0,.62,19.78c1.14,10.63,2.07,29.31,2.07,29.31s3.63,3.42,7.38,0c0,0,1-12.34,0-19.17,0,0,.71-12-.47-18S361.07,221.49,361.07,221.49Z"/><path class="cls-81" d="M356.28,265.82s-.93-18.68-2.07-29.31a152,152,0,0,1-.62-20.83,11.32,11.32,0,0,0,6.45,5.63c-.13,4.05-.51,16-.45,20,.06,3.77.8,19.43,1.11,26A6,6,0,0,1,356.28,265.82Z"/><path class="cls-80" d="M374.25,220.85s.54,6.21.65,15.87.82,13.29,1.06,14.77,1.05,17.63.58,22.35c0,0-3,4.71-7.85,0,0,0-.81-16.57-1.63-20.33s-5.41-22.08-7.26-28.65c-.82-2.91-1-4-1-4S366.87,226.67,374.25,220.85Z"/><path class="cls-81" d="M368.69,273.84s-.81-16.57-1.63-20.33-5.41-22.08-7.26-28.65a15.38,15.38,0,0,0-2.71-5.14s5.3,3.72,9.9,3.71c.2,1.42,2.15,14.94,2.61,20.85s4.45,26.48,3.38,31.65C371.79,276,370.35,275.46,368.69,273.84Z"/><path class="cls-108" d="M369,182.31s8.26,5,8.43,5.65,2.27,2.42-1.44,9.72c0,0-4.83,7.88-3.28,16.2a51.87,51.87,0,0,0,1.84,7.37s-4.2,5.37-14.61.69c-2.1-.95-5.52-4.15-6.45-6.59a55.66,55.66,0,0,0,.74-15.17c-.76-8.26-.77-18.91,4-20C358.17,180.19,359.45,178.85,369,182.31Z"/><path class="cls-79" d="M370.37,176.46s-2.89,3.79-1,6.62c1.06,1.58-1.93,4.95-6.58,4.33,0,0-2-.65-1.77-1.39.6-1.69,0-2.7-.67-4.07S370.37,176.46,370.37,176.46Z"/><path class="cls-85" d="M369.36,183.08a1.31,1.31,0,0,1,.21.64c-1.63-1.91-5-2.28-5-2.28l4.77-4.59.47-.18.1.44C369.21,178.32,368,181,369.36,183.08Z"/><path class="cls-86" d="M361,186c.62-2.7,0-2.7-.67-4.07-.18-.37.5-1,1.57-1.61a3.54,3.54,0,0,1,.7.91,8.4,8.4,0,0,1,1.14,6.24,4.65,4.65,0,0,1-1-.08C362.23,187.29,360.81,186.85,361,186Z"/><path class="cls-79" d="M371.5,174.29s-1.51,5.19-5.3,7.32c-3.36,1.89-7.19,3-7.61-.86-.33-3.09-1.28-10.95,1.53-12.32,3.6-1.75,5-4.14,8.95-2.38C369.07,166.05,373.51,168.48,371.5,174.29Z"/><path class="cls-87" d="M371.5,174.29a11.8,11.8,0,0,1-5.29,7.39,14.93,14.93,0,0,1-3.15,1.4,14.49,14.49,0,0,0,3.39-2.92c1.42-1.43-1.88-1.08.62-4.82.85-1.27-3,.18-3.81.1-4.93-.48-4.36-3.28-4.37-4.48a7.29,7.29,0,0,1,.51-1.43l.53-.87.19-.23a16.21,16.21,0,0,1,1.72-1.64c2.11.19,8.12.75,8.23.79s1,1.5,1.89,2.9A8.29,8.29,0,0,1,371.5,174.29Z"/><path class="cls-88" d="M369,179.24s4.25-3.39,3.24-8.76a6.18,6.18,0,0,0-5.11-5.18c-2.23-.43-6.2-.35-8.24,4.06-.63,1.38-.48,5.16,5.18,4.11.82-.15,2.58-1.18,3.28-.45a2.9,2.9,0,0,1,.25,3c-.38.93.45,1.08.57.89s1.39-2.81,2.32-1.68S369.09,179.06,369,179.24Z"/><path class="cls-89" d="M369,179.24c.11-.18,2.33-3,1.49-4s-2.19,1.49-2.32,1.68-.95,0-.57-.89a2.9,2.9,0,0,0-.25-3c-.64-.66-2.14.12-3,.38a7,7,0,0,0,2.95-2.92,5.52,5.52,0,0,1,3.52-3.15,6.44,6.44,0,0,1,1.44,3.15C373.23,175.85,369,179.24,369,179.24Z"/><path class="cls-110" d="M353.46,215.35a55.66,55.66,0,0,0,.74-15.17c-.63-6.89-.73-15.41,2-18.69,1.05,1,3.08,3.37,3.41,6,.43,3.56,4.27,5.83,6.2,6.44s2.72,3.87,1.23,8.8c-1.2,4-.61,15,.4,21.11a19.46,19.46,0,0,1-7.52-1.9C357.81,221,354.39,217.79,353.46,215.35Z"/><polygon class="cls-83" points="334.71 204.01 334.76 221.12 352.51 231.44 352.46 214.33 334.71 204.01"/><polygon class="cls-111" points="352.46 214.33 352.51 231.44 370.38 221.12 370.33 204.01 352.46 214.33"/><polygon class="cls-83" points="352.46 214.33 352.46 214.33 370.38 221.12 370.33 204.01 352.46 214.33"/><polygon class="cls-83" points="334.71 204.01 352.46 214.33 370.33 204.01 352.58 193.69 334.71 204.01"/><polygon class="cls-112" points="336.27 204.1 352.47 213.51 368.77 204.09 352.58 194.68 336.27 204.1"/><g class="cls-2"><polygon class="cls-113" points="347.82 192.3 346.34 191.44 346.39 206.12 347.86 206.98 347.82 192.3"/><polygon class="cls-114" points="353.22 189.18 351.74 188.32 346.34 191.44 347.82 192.3 353.22 189.18"/><polygon class="cls-115" points="347.82 192.3 347.86 206.98 353.26 203.87 353.22 189.18 347.82 192.3"/><polygon class="cls-116" points="347.86 200.51 347.86 206.98 353.26 203.87 353.22 189.18 347.86 200.51"/></g><g class="cls-2"><polygon class="cls-113" points="351.51 194.68 350.03 193.82 350.07 208.5 351.55 209.36 351.51 194.68"/><polygon class="cls-114" points="356.91 191.56 355.43 190.71 350.03 193.82 351.51 194.68 356.91 191.56"/><polygon class="cls-115" points="351.51 194.68 351.55 209.36 356.95 206.24 356.91 191.56 351.51 194.68"/><polygon class="cls-116" points="353.47 202.1 351.55 209.36 356.95 206.24 356.91 191.56 353.47 202.1"/></g><polygon class="cls-117" points="368.77 204.09 359.65 198.79 350 203.96 358.81 209.84 368.77 204.09"/><g class="cls-25"><path d="M359.41,204.5a1.13,1.13,0,0,0,0,2.14,4,4,0,0,0,3.68,0,1.12,1.12,0,0,0,0-2.13A4.13,4.13,0,0,0,359.41,204.5Z"/></g><path class="cls-50" d="M359.86,204.29c-.78.45-.78,1.18,0,1.62a3.05,3.05,0,0,0,2.79,0,.86.86,0,0,0,0-1.62A3.11,3.11,0,0,0,359.86,204.29Z"/><polygon class="cls-50" points="363.85 201.98 363.23 205.21 359.28 205.21 358.65 201.9 363.85 201.98"/><path class="cls-69" d="M359.41,200.83a1.13,1.13,0,0,0,0,2.14,4,4,0,0,0,3.68,0c1-.59,1-1.55,0-2.13A4.1,4.1,0,0,0,359.41,200.83Z"/><path class="cls-28" d="M360,201.12a.82.82,0,0,0,0,1.56,3,3,0,0,0,2.7,0,.83.83,0,0,0,0-1.56A3,3,0,0,0,360,201.12Z"/><path class="cls-28" d="M363.19,202.1s1.92-2.43,0-6.79c0,0-1.66,2.08-.71,7.45A1.5,1.5,0,0,0,363.19,202.1Z"/><path class="cls-29" d="M363.2,195.33c0,1.69-.13,4.61-.36,7.21a1.33,1.33,0,0,1-.32.22C361.63,197.76,363,195.6,363.2,195.33Z"/><path class="cls-28" d="M362.25,201.8s1.53-2.69-1-6.72c0,0-1.33,2.31.41,7.47A1.53,1.53,0,0,0,362.25,201.8Z"/><path class="cls-29" d="M361.4,195.07c.22,1.67.56,4.58.71,7.18a1,1,0,0,1-.28.26C360.21,197.7,361.25,195.37,361.4,195.07Z"/><path class="cls-28" d="M362.15,202.86s2.3-.81,2.88-4.52c0,0-2,.7-3.61,4.68A1.21,1.21,0,0,0,362.15,202.86Z"/><path class="cls-29" d="M365,198.35c-.73,1.11-2,3-3.27,4.66a1.06,1.06,0,0,1-.31,0C362.93,199.31,364.76,198.45,365,198.35Z"/><path class="cls-28" d="M361.13,202.5s1.23-1.4.22-4.1c0,0-1.06,1.22-.65,4.48A.89.89,0,0,0,361.13,202.5Z"/><path class="cls-29" d="M361.34,198.42c-.08,1-.22,2.77-.44,4.34a.71.71,0,0,1-.2.12C360.32,199.84,361.21,198.58,361.34,198.42Z"/><path class="cls-28" d="M360.58,201.6s1.18-2.14-.85-5.29c0,0-1,1.84.41,5.89A1.22,1.22,0,0,0,360.58,201.6Z"/><path class="cls-29" d="M359.71,196.34c.19,1.31.5,3.59.66,5.65a.87.87,0,0,1-.23.21C358.8,198.43,359.6,196.57,359.71,196.34Z"/><path class="cls-28" d="M360.28,202s.28-1.8-2-3.49c0,0-.24,1.55,1.81,4A1,1,0,0,0,360.28,202Z"/><path class="cls-29" d="M358.32,198.53c.47.87,1.27,2.4,1.9,3.8a.75.75,0,0,1-.09.2C358.22,200.23,358.3,198.72,358.32,198.53Z"/><polygon class="cls-118" points="355.54 207.66 355.54 211.73 358.81 209.84 355.54 207.66"/><polygon class="cls-117" points="355.55 208.63 355.54 211.73 352.47 213.51 349.8 211.95 355.55 208.63"/><polygon class="cls-119" points="355.55 208.63 352.47 213.51 355.54 211.73 355.55 208.63"/><path class="cls-120" d="M342.6,198.92a.62.62,0,0,0,0,.23v0a.93.93,0,0,0,.1.2l0,0a1.07,1.07,0,0,0,.18.19l.14.11.15.1a1.87,1.87,0,0,0,.43.19l.17.05.21.06.27,0h.07l.36,0h.06l.37,0h.05a2.25,2.25,0,0,0,.36-.06h.06l.31-.1H346l.34-.16a1.1,1.1,0,0,0,.64-.91l0,6.9a1.09,1.09,0,0,1-.65.91,1.48,1.48,0,0,1-.31.15H346l-.2.07-.11,0h-.06l-.06,0-.22,0h-1l-.19,0-.07,0-.23-.06-.11,0-.05,0a2.08,2.08,0,0,1-.43-.19h0l-.1-.08a1.11,1.11,0,0,1-.16-.12h0l-.13-.15,0,0s0,0,0,0l0-.06-.06-.12v0l0-.08c0-.05,0-.09,0-.13v0l0-6.44v-.46Z"/><path class="cls-121" d="M343.26,198c-.87.5-.88,1.3,0,1.8a3.41,3.41,0,0,0,3.11,0,1,1,0,0,0,0-1.8A3.39,3.39,0,0,0,343.26,198Z"/><path class="cls-120" d="M343.93,194.59h0a.58.58,0,0,0,.2.17,1,1,0,0,0,.28.11l.05,0a1.73,1.73,0,0,0,.32,0h0a1.19,1.19,0,0,0,.33,0h0a1.66,1.66,0,0,0,.31-.12.48.48,0,0,0,.27-.38v4.4a.48.48,0,0,1-.27.38l-.14.07-.12,0-.05,0H345l-.09,0h-.29l-.12,0h-.09l-.08,0a.67.67,0,0,1-.21-.09h0l-.12-.09L344,199h0l0,0,0-.06a.07.07,0,0,1,0-.05.09.09,0,0,1,0,0v-4.4h0A.39.39,0,0,0,343.93,194.59Z"/><path class="cls-121" d="M344.15,194c-.38.22-.37.56,0,.77a1.48,1.48,0,0,0,1.33,0,.4.4,0,0,0,0-.76A1.46,1.46,0,0,0,344.15,194Z"/><path class="cls-122" d="M339.53,202.1a.55.55,0,0,0,0,.17h0a1.09,1.09,0,0,0,.08.15l0,0a.83.83,0,0,0,.13.14l.1.08.11.07a1.15,1.15,0,0,0,.32.14l.13,0,.15,0,.2,0h.05l.27,0h.05l.26,0h0l.27,0h0l.23-.07h0a1.42,1.42,0,0,0,.25-.12.81.81,0,0,0,.47-.67l0,5.1a.83.83,0,0,1-.48.67,1.75,1.75,0,0,1-.24.11H342l-.14.05-.08,0h-.09l-.17,0h-.72l-.14,0h-.06l-.17,0s-.06,0-.08,0h0a1.34,1.34,0,0,1-.32-.14h0l-.07-.06-.12-.08h0l-.1-.11,0,0s0,0,0,0,0,0,0-.05l0-.09v0h0s0,0,0-.06a.31.31,0,0,1,0-.1h0v-5.08Z"/><path class="cls-123" d="M340,201.43c-.64.37-.64,1,0,1.32a2.52,2.52,0,0,0,2.3,0,.7.7,0,0,0,0-1.32A2.52,2.52,0,0,0,340,201.43Z"/><path class="cls-122" d="M340.52,198.9h0a.6.6,0,0,0,.14.13l.22.08h0l.24,0h0a1.07,1.07,0,0,0,.25,0h0a.92.92,0,0,0,.23-.09.35.35,0,0,0,.2-.28V202a.35.35,0,0,1-.21.28l-.1.05-.08,0H341l-.08,0h-.13a.52.52,0,0,1-.15-.07h0l-.08-.07,0,0v0h0l0,0s0,0,0,0a.08.08,0,0,1,0,0s0,0,0,0v-3.25h0A.24.24,0,0,0,340.52,198.9Z"/><path class="cls-121" d="M340.67,198.47a.3.3,0,0,0,0,.57,1.11,1.11,0,0,0,1,0,.3.3,0,0,0,0-.56A1.06,1.06,0,0,0,340.67,198.47Z"/><g class="cls-2"><polygon class="cls-124" points="342.54 205.24 342.54 207.73 349.8 211.95 349.79 209.46 342.54 205.24"/><polygon class="cls-125" points="349.79 209.46 349.8 211.95 355.55 208.63 355.54 206.13 349.79 209.46"/><polygon class="cls-126" points="342.54 205.24 349.79 209.46 355.54 206.13 348.29 201.91 342.54 205.24"/></g><polygon class="cls-73" points="355.27 206.83 349.8 209.97 349.79 211.57 355.25 208.4 355.27 206.83"/><polygon class="cls-126" points="349.8 209.97 342.54 205.81 342.54 207.31 349.79 211.57 349.8 209.97"/><g class="cls-2"><polygon class="cls-127" points="343.5 203.03 343.5 205.52 350.76 209.74 350.75 207.25 343.5 203.03"/><polygon class="cls-128" points="350.75 207.25 350.76 209.74 356.51 206.42 356.51 203.92 350.75 207.25"/><polygon class="cls-129" points="343.5 203.03 350.75 207.25 356.51 203.92 349.25 199.71 343.5 203.03"/></g><polygon class="cls-129" points="356.23 204.62 350.76 207.75 350.75 209.36 356.21 206.19 356.23 204.62"/><polygon class="cls-130" points="350.76 207.75 343.5 203.6 343.5 205.1 350.75 209.36 350.76 207.75"/><polygon class="cls-83" points="336.27 204.1 344.45 208.84 344.07 209.46 335.58 204.52 336.27 204.1"/><polygon class="cls-83" points="339.36 206.71 339.36 208.85 342.6 209.52 342.42 208.47 339.36 206.71"/><path class="cls-131" d="M360.31,219.2a10.81,10.81,0,0,0-2.82,2.31c-.55,1-1.06,1.88-.79,2.05.65.4,1.21-.5,1.6-1.14s1.56-.82,2.24-.91,3.21-1.23,2.83-2.74l-.91-.72Z"/><path class="cls-106" d="M360.3,218.19s4-.53,4.63,3.46A3.82,3.82,0,0,1,360.3,218.19Z"/><path class="cls-131" d="M364.69,219.56a26.48,26.48,0,0,0-1.61,4c-.11.84-1.87,2.33-2.9,2.65s-3.88.87-3.37-.63,1.45-2.34,1.64-3.32a5.49,5.49,0,0,1,1.47-2.83l2.49-1.7Z"/><path class="cls-132" d="M363.08,223.54c-.11.84-1.87,2.33-2.9,2.65s-3.34.76-3.42-.26c.49-.11,1.23-.29,2.34-.61,2.63-.75,4.32-4.87,4.85-6.36l.74.6A26.48,26.48,0,0,0,363.08,223.54Z"/><path class="cls-108" d="M375.24,187s-2.93-.49-5,9.16-2.07,10.26-2.07,10.26l-7.86,11.73a4.23,4.23,0,0,1,4.63,3.46s6.53-6.77,7.26-9.21S384.28,188.26,375.24,187Z"/><path class="cls-110" d="M360.3,218.19l7.86-11.73s0-.62,2.07-10.26,5-9.16,5-9.16a5.06,5.06,0,0,1,.83.18c-.79,3.78-3.35,4.26-6.56,20.18-.95,4.7-5.83,8.78-7.27,11A4.86,4.86,0,0,0,360.3,218.19Z"/><path class="cls-109" d="M364.93,221.65a5.15,5.15,0,0,0-.72-1.72c1.87-2.17,5.39-6.22,6.16-7.11s4.14-7.18,6.19-11.06c-1.78,5-4.06,9.63-4.37,10.68C371.46,214.88,364.93,221.65,364.93,221.65Z"/><g class="cls-25"><polygon points="167.87 346.72 213.04 372.97 347.71 295.22 302.53 268.97 167.87 346.72"/></g><g class="cls-25"><polygon points="175.81 319.23 204.55 335.93 290.24 286.46 261.49 269.75 175.81 319.23"/></g><path class="cls-133" d="M217,281.54c0-.18,0-.35.08-.52s0,0,0-.08.07-.32.12-.47a.14.14,0,0,1,0-.06c0-.13.09-.25.13-.37a.37.37,0,0,0,.05-.11l.15-.29.06-.11.06-.07a2.28,2.28,0,0,1,.3-.38l.11-.11a2.59,2.59,0,0,1,.42-.32l-1.38.8a3.19,3.19,0,0,0-.43.32l-.09.11a2.38,2.38,0,0,0-.32.38l0,.05,0,0-.06.12a2.39,2.39,0,0,0-.12.22.21.21,0,0,0,0,.06l-.05.11a.77.77,0,0,0-.07.16,1.42,1.42,0,0,0-.07.22s0,0,0,0a0,0,0,0,1,0,0c0,.1-.05.19-.07.29a.85.85,0,0,0,0,.17.43.43,0,0,0,0,.05s0,0,0,.06a2.7,2.7,0,0,0,0,.28,1.49,1.49,0,0,0,0,.21v.07a2.64,2.64,0,0,0,0,.28V283h0l-.07,23.27,1.38-.81.06-23.26c0-.21,0-.42,0-.62Z"/><path class="cls-133" d="M236,292.9c0-.12,0-.23,0-.35s0-.06,0-.09v0c0-.08,0-.16,0-.23s0-.24,0-.36a.77.77,0,0,0,0-.15s0-.05,0-.07a.68.68,0,0,0,0-.14l-.06-.36c0-.08,0-.15-.05-.23s0,0,0-.06a.2.2,0,0,1,0-.07c0-.13-.06-.25-.1-.38s0-.21-.07-.32h0v0c0-.12-.07-.24-.11-.36s-.07-.25-.11-.36a0,0,0,0,1,0,0h0a2.83,2.83,0,0,1-.11-.31c0-.1-.08-.22-.13-.33s0-.07,0-.11,0,0,0-.05l-.06-.16c-.05-.1-.09-.21-.14-.31s-.07-.17-.12-.26,0,0,0,0,0,0,0,0l-.16-.33-.18-.35,0,0v0l-.27-.49a.61.61,0,0,1-.07-.1c-.08-.15-.18-.29-.27-.43s-.09-.16-.14-.23l-.06-.07-.12-.18-.18-.26-.18-.24-.05-.06h0l-.22-.27-.21-.25,0,0a.08.08,0,0,1,0,0l-.14-.16-.22-.23-.12-.11,0-.06s-.05,0-.06-.06l-.24-.21-.23-.2h0l-.22-.18-.22-.17-.09-.07-.06,0-.08-.06-.21-.14-.22-.14-.05,0-8.86-5.11-.16-.09-.21-.11-.16-.08h-.05l-.21-.09-.21-.08-.07,0h0l-.1,0-.21-.06-.16,0h-.07l-.23,0-.22,0h-.56a1.88,1.88,0,0,0-.33.05h0l-.17.05-.2.05,0,0a2.67,2.67,0,0,0-.45.22l-1.38.79a2.37,2.37,0,0,1,.46-.2,1,1,0,0,1,.25-.08.42.42,0,0,1,.15,0l.41-.07h.51l.48.07h0a4.27,4.27,0,0,1,.48.13h0a5.55,5.55,0,0,1,.52.2h0a5.72,5.72,0,0,1,.55.28l8.85,5.11c.19.11.38.24.57.37l.05,0,.54.42h0c.18.15.36.32.53.48l0,.06c.17.16.33.33.48.5l0,0c.17.19.34.38.49.58l0,0c.12.17.25.34.37.52l.13.17.18.29c.1.16.2.31.29.47s.22.36.31.54l0,.07c.13.23.25.48.36.72l0,0q.16.35.3.69l0,.1.27.72a0,0,0,0,0,0,0c.08.25.15.5.22.76l0,.07c.06.25.12.49.17.73,0,0,0,.05,0,.07.05.24.09.47.12.71,0,0,0,.06,0,.09,0,.23.05.47.07.7,0,0,0,.05,0,.08,0,.25,0,.5,0,.75l-.06,23.26,1.37-.8.07-23.26C236,293.12,236,293,236,292.9Z"/><path class="cls-134" d="M228.88,283.19c3.2,1.85,5.79,6.71,5.78,10.84l-.06,23.26-1.39-.8.07-23.26c0-3.25-2-7-4.41-8.44L220,279.67c-2.43-1.41-4.43.1-4.43,3.34l-.07,23.27-1.39-.81.07-23.26c0-4.12,2.63-6,5.83-4.13Z"/><g class="cls-2"><g class="cls-135"><g class="cls-2"><polygon class="cls-136" points="212.86 280.36 208.68 247.84 208.68 247.84 212.86 280.36 212.86 280.36 212.86 280.36"/><path class="cls-137" d="M212.86,280.36l-4.18-32.52,0-.07,4.19,32.61,0,0Z"/><path class="cls-138" d="M212.9,280.38l-4.19-32.61s0,0,0-.05l4.2,32.67Z"/><path class="cls-139" d="M212.92,280.39l-4.2-32.67s0,0,0,0l4.21,32.73,0,0Z"/><path class="cls-140" d="M212.94,280.41l-4.21-32.73s0,0,0,0L213,280.41Z"/><path class="cls-141" d="M213,280.41l-4.21-32.77v0L213,280.42Z"/><path class="cls-142" d="M213,280.42l-4.23-32.81s0,0,0,0L213,280.43Z"/><path class="cls-143" d="M213,280.43l-4.22-32.86v0L213,280.44Z"/><path class="cls-144" d="M213,280.44l-4.23-32.91v-.05l4.24,33Z"/><path class="cls-145" d="M213,280.45l-4.24-33a.11.11,0,0,0,0,0l4.25,33Z"/><path class="cls-146" d="M213,280.45l-4.25-33h0l.22,1.64.21,1.64.21,1.65.21,1.65.21,1.65.21,1.65.43,3.32.21,1.66.22,1.66.42,3.31.22,1.66.21,1.66.21,1.65.21,1.65.22,1.65.21,1.65.21,1.64.21,1.64Z"/></g></g></g><path class="cls-147" d="M208.68,247.2c1.37,10.66,3.11,21.79,4.48,32.45-7,4.08-14.85,8.48-21.9,12.55-1.37-10.66-2.82-21.86-4.19-32.52Z"/><path class="cls-73" d="M208.75,246.85h0a.08.08,0,0,0,0,0v-.07l0,0v0s0,0,0,0,0,0,0-.05a.08.08,0,0,1,0,0,0,0,0,0,1,0,0h0l0,0,0-.06,0,0h0l-.05-.06,0-.06a0,0,0,0,1,0,0h0l0,0-.07-.05-.06,0h0l-.08-.05-.09,0h0l-.25-.1-.07,0-.1,0-.09,0h-.38l-.09,0,0,0h0l-.1,0-.1,0-1.09.63-1.1.64-1.07.62-3.26,1.88-.08.05-.16.09-3,1.74-.15.08-.11.07-4,2.31-.32.19-.95.54-3.46,2h0l-1.1.63-.35.2-1.84,1.07h0a4.05,4.05,0,0,1,.54.19l.24.09.59.25,0,0h0l.7.33h0l.12.07,21.61-12.48h0s0,0,0,0h0v0h0v0h0v0h0v0s0,0,0,0v-.07Z"/><path class="cls-43" d="M187.07,259.68l0,0-.06,0h0l0,0,0,0h-.05l0,0-.06,0-.06,0-.07,0-.1,0,0,0-.09,0h0l-.38-.17h0l-.36-.15-.24-.09c-.38-.16-.6-.23-.6-.2l.43,3.29.42,3.29.42,3.31q.6,4.62,1.19,9.26l.09.69.22,1.65.05.38c.33,2.63.67,5.25,1,7.88h0v0l.42,3.25a1,1,0,0,0,.67.79l.24.09a1.47,1.47,0,0,0,.35.08h.39l.05,0h.06l.08,0,0,0h0l.05,0,.05,0,0,0h0l0,0,0,0,0,0,0,0h0a0,0,0,0,0,0,0l.05-.07,0-.07Z"/><path class="cls-43" d="M214.33,304v-.09h0c0-.08,0-.14,0-.19L190.76,290c-.06,0-.15.34-.21.35l.47,0h0l-.05,0h0l-.05,0h0l0,0-.05,0,0,0,0,0h0l0,0-.07.07h0v0l-.05.07a.25.25,0,0,0,0,.07l0,.05s0,0,0,0,0,0,0,.06,0,.1-.05.14v0s0,0,0,0a1.37,1.37,0,0,0,0,.36v.3c0,.5-.93.42-.6.62s2,1,2.44,1.25l1,.6,1.17.68,1.17.68.59.34,1.83,1.05,1.12.65,1.18.68,1.18.68,1.18.69,1.19.68,1.18.68,1.18.68,1.18.68,1.09.63.17.1,1.1.63,1.17.68,1.17.67,1.17.68,1.16.67v-1.1c0-.2,0-.4,0-.6V304Z"/><path class="cls-73" d="M236,291.14l-21.67,12.59c-7.54-4.36-15.79-9.24-23.33-13.6,7.06-4.1,14.82-8.24,21.88-12.34Z"/><path class="cls-41" d="M236.94,292.26a.45.45,0,0,0,0-.11v0l0-.06a.44.44,0,0,0,0-.1l0-.05v0l0-.08,0-.08,0,0h0s0,0,0-.05l0-.06,0-.05v0h0l0,0,0,0,0,0,0,0,0,0,0,0,0,0,0,0,0,0,0,0-.06,0H236l-21.67,12.59h0v0h0v0h0v0h0v0s0,0,0,0v.1h0V305a.31.31,0,0,1,0,.1v1.55l1.09-.63.71-.41,3.65-2.12,0,0,1.11-.64,1.1-.64.66-.38L224,301l.24-.14.1-.06,3.23-1.88,2.22-1.28,4.4-2.57,2.19-1.27a.73.73,0,0,0,.22-.18h0a.27.27,0,0,0,.07-.08l.06-.09s0-.05,0-.07a0,0,0,0,0,0,0h0a.69.69,0,0,1,0-.1l0-.1,0-.08v0h0l0-.11s0-.07,0-.11,0-.08,0-.12h0v-.31A.41.41,0,0,0,236.94,292.26Z"/><polygon class="cls-41" points="208.69 247.17 187.07 259.68 190.99 290.13 212.87 277.79 208.69 247.17"/><polygon class="cls-73" points="210.01 257.3 188.36 269.7 190.13 283.45 211.91 270.38 210.01 257.3"/><path class="cls-133" d="M192.56,296c0-.18,0-.36.07-.53s0-.05,0-.07.07-.32.11-.47a.19.19,0,0,0,0-.07c.05-.13.09-.25.14-.37s0-.07.05-.1a1.59,1.59,0,0,1,.15-.29l.06-.11,0-.08a4.08,4.08,0,0,1,.31-.39l.1-.1a2.52,2.52,0,0,1,.43-.32l-1.39.8a2.18,2.18,0,0,0-.42.33l-.1.1a2.31,2.31,0,0,0-.31.39l0,.05s0,0,0,0,0,.08-.07.11a2.53,2.53,0,0,0-.12.23l0,.06-.05.11-.06.16a1.29,1.29,0,0,0-.07.21s0,0,0,.05v0c0,.09-.05.19-.08.29l0,.16s0,0,0,.06a.13.13,0,0,0,0,.06c0,.09,0,.19-.05.29a1.5,1.5,0,0,1,0,.2v.08a2.46,2.46,0,0,0,0,.28,2.53,2.53,0,0,0,0,.28v0l-.06,23.35,1.38-.81.07-23.35c0-.21,0-.42,0-.62A.09.09,0,0,0,192.56,296Z"/><path class="cls-133" d="M211.67,307.35c0-.11,0-.23,0-.35v-.09a0,0,0,0,1,0,0,1.64,1.64,0,0,0,0-.23l0-.36,0-.15a.25.25,0,0,0,0-.08.59.59,0,0,0,0-.13,2.25,2.25,0,0,0-.06-.36,1.55,1.55,0,0,0-.05-.23.15.15,0,0,0,0-.07s0,0,0-.07l-.09-.38c0-.1-.06-.21-.08-.31v0a.08.08,0,0,0,0,0l-.1-.37-.12-.35a0,0,0,0,0,0,0h0c0-.1-.06-.21-.1-.31l-.12-.33a.61.61,0,0,1-.05-.12s0,0,0-.05l-.06-.15-.14-.32-.12-.25s0,0,0,0a0,0,0,0,1,0,0l-.17-.34-.18-.35v0l0,0a4.67,4.67,0,0,0-.27-.49l-.06-.1-.27-.44-.15-.23-.05-.07-.13-.18a1.44,1.44,0,0,0-.18-.25c0-.08-.12-.16-.18-.24a.43.43,0,0,1,0-.07h0a2.88,2.88,0,0,0-.22-.27l-.21-.25,0,0,0,0-.15-.16-.22-.23-.11-.12-.06-.05,0-.06-.23-.22-.24-.2h0a1.24,1.24,0,0,0-.22-.18l-.22-.17-.1-.07-.06,0-.07-.06-.22-.14-.22-.13s0,0,0,0L197,291.67l-.16-.09-.21-.11-.17-.07,0,0h0l-.21-.09-.21-.08-.07,0h0l-.11,0-.21-.05-.16,0h-.07l-.22,0-.23,0a0,0,0,0,0,0,0h-.55l-.33,0h0l-.17.05a1.17,1.17,0,0,0-.2.06h0a3.82,3.82,0,0,0-.46.21l-1.38.81a2,2,0,0,1,.45-.21l.26-.08.15,0a2.83,2.83,0,0,1,.42-.06h.51a2.93,2.93,0,0,1,.48.07h0l.48.12,0,0a3.28,3.28,0,0,1,.52.2h0a4.08,4.08,0,0,1,.55.28l8.89,5.13q.28.17.57.36a.1.1,0,0,0,.05,0l.54.42h0c.18.15.36.32.53.48l.05.06c.17.16.33.33.49.5l0,0c.17.19.33.39.49.59l0,0c.13.17.26.33.38.51l.12.18a2.9,2.9,0,0,1,.19.29l.3.47c.1.18.21.36.31.55l0,.06c.13.23.25.48.37.73a0,0,0,0,1,0,0c.11.23.21.47.31.7l0,.1q.15.36.27.72a0,0,0,0,0,0,0c.09.25.16.51.23.76a.24.24,0,0,1,0,.08q.1.36.18.72s0,.05,0,.07c.05.25.09.48.13.72,0,0,0,.06,0,.09,0,.24.06.47.07.71a.15.15,0,0,1,0,.07c0,.25,0,.51,0,.76l-.06,23.35,1.38-.81.07-23.35C211.68,307.57,211.67,307.46,211.67,307.35Z"/><path class="cls-134" d="M204.49,297.61c3.21,1.85,5.81,6.73,5.8,10.88l-.06,23.35-1.39-.81.06-23.35c0-3.26-2-7.06-4.42-8.47l-8.88-5.14c-2.45-1.41-4.45.1-4.46,3.36l-.06,23.35-1.4-.81.07-23.34c0-4.15,2.64-6,5.85-4.15Z"/><path class="cls-133" d="M266.37,259.34c0-.18.05-.35.08-.52s0-.05,0-.08a3.59,3.59,0,0,1,.12-.47.14.14,0,0,1,0-.06c0-.13.09-.25.13-.37l0-.1a2,2,0,0,1,.15-.29l.06-.12.05-.07a3,3,0,0,1,.31-.38l.1-.11a3.11,3.11,0,0,1,.42-.32l-1.37.8a2.67,2.67,0,0,0-.43.32l-.09.11a2.38,2.38,0,0,0-.32.38l0,.05s0,0,0,0l-.06.12a2.39,2.39,0,0,0-.12.22.33.33,0,0,1,0,.06.56.56,0,0,0,0,.12.52.52,0,0,0-.07.15c0,.07-.05.15-.08.22a.43.43,0,0,0,0,.05s0,0,0,0-.05.18-.08.28l0,.17s0,0,0,.05,0,0,0,.06a2.74,2.74,0,0,0-.05.28c0,.07,0,.14,0,.21v.07a2.64,2.64,0,0,0,0,.28c0,.1,0,.19,0,.29h0l-.06,23.27,1.38-.8.06-23.27a5.93,5.93,0,0,1,0-.61Z"/><path class="cls-133" d="M285.41,270.7c0-.12,0-.23,0-.35s0-.06,0-.09v0c0-.08,0-.15,0-.23s0-.24,0-.36a.77.77,0,0,0,0-.15s0-.05,0-.07a.68.68,0,0,1,0-.14l-.06-.36c0-.07,0-.15-.05-.23s0,0,0-.06a.64.64,0,0,0,0-.07c0-.13-.05-.25-.09-.38s-.05-.21-.08-.31v0a.06.06,0,0,1,0,0c0-.12-.07-.24-.11-.36s-.07-.24-.11-.36a0,0,0,0,1,0,0h0c0-.1-.08-.2-.11-.3a3.42,3.42,0,0,1-.13-.34s0-.07,0-.11l0-.05a1,1,0,0,0-.07-.15c0-.11-.09-.22-.13-.32l-.12-.26v0l0,0a3.54,3.54,0,0,0-.16-.34,3.84,3.84,0,0,0-.18-.35v0c-.09-.17-.19-.33-.28-.49l-.06-.1-.27-.43-.15-.23a.18.18,0,0,0,0-.07l-.12-.18-.18-.26-.18-.24-.05-.05v0l-.22-.27-.21-.25,0,0,0,0-.13-.16-.23-.23a.57.57,0,0,0-.11-.11l-.06-.05s0-.05-.06-.07l-.23-.21-.23-.2h0l-.22-.18-.22-.17-.1-.07-.05,0-.08-.06a1.64,1.64,0,0,0-.22-.14l-.22-.14,0,0-8.86-5.11-.16-.09-.21-.11-.17-.08h0l-.21-.09-.21-.08-.07,0h0l-.1,0-.21,0-.17,0h-.06l-.23,0-.22,0h-.56a1.88,1.88,0,0,0-.33.05h0l-.17,0-.2.05,0,0a1.85,1.85,0,0,0-.45.21l-1.39.79a3.05,3.05,0,0,1,.46-.2,1.12,1.12,0,0,1,.26-.08l.15,0,.41-.07h.51a4.8,4.8,0,0,1,.48.08h0a4.27,4.27,0,0,1,.48.13h0a5.38,5.38,0,0,1,.51.2h0a4.63,4.63,0,0,1,.54.28l8.86,5.11c.19.11.38.24.56.37l.06,0,.54.43h0l.52.48.06.06.48.5,0,0c.17.19.33.38.49.58,0,0,0,0,0,0,.13.17.26.34.38.52l.12.17.19.29c.1.16.2.31.29.47a6,6,0,0,1,.31.55s0,0,0,.06c.13.23.26.48.37.72l0,0c.1.23.21.46.3.7l0,.09q.15.36.27.72s0,0,0,0c.08.25.16.51.23.76a.19.19,0,0,1,0,.07c.07.25.13.49.18.73a.19.19,0,0,0,0,.07l.12.71s0,.06,0,.09c0,.23.06.47.08.7v.08q0,.38,0,.75L284,295.09l1.37-.8.07-23.26C285.42,270.92,285.42,270.81,285.41,270.7Z"/><path class="cls-134" d="M278.26,261c3.2,1.85,5.79,6.71,5.78,10.84L284,295.09l-1.39-.8.07-23.26c0-3.25-2-7-4.41-8.44l-8.85-5.12c-2.44-1.4-4.43.1-4.44,3.34l-.06,23.27-1.39-.8.07-23.27c0-4.12,2.62-6,5.82-4.13Z"/><g class="cls-2"><g class="cls-148"><g class="cls-2"><polygon class="cls-136" points="262.24 258.16 258.06 225.64 258.06 225.64 262.24 258.16 262.24 258.16 262.24 258.16"/><path class="cls-137" d="M262.24,258.16l-4.18-32.52a.64.64,0,0,1,0-.07l4.2,32.61,0,0Z"/><path class="cls-138" d="M262.28,258.18l-4.2-32.61,0,0,4.2,32.68,0,0Z"/><path class="cls-139" d="M262.3,258.2l-4.2-32.68a.08.08,0,0,1,0,0l4.21,32.73Z"/><path class="cls-140" d="M262.32,258.21l-4.21-32.73s0,0,0,0l4.21,32.78Z"/><path class="cls-141" d="M262.33,258.22l-4.21-32.78v0l4.22,32.81Z"/><path class="cls-142" d="M262.34,258.22l-4.22-32.81v0l4.23,32.86Z"/><path class="cls-143" d="M262.35,258.23l-4.23-32.86a.06.06,0,0,0,0,0l4.23,32.91Z"/><path class="cls-144" d="M262.36,258.24l-4.23-32.91v0l4.23,33Z"/><path class="cls-145" d="M262.36,258.25l-4.23-33a.11.11,0,0,1,0,0l4.25,33Z"/><path class="cls-146" d="M262.37,258.25l-4.25-33v0l.21,1.64.21,1.64.21,1.65.22,1.65.21,1.65.21,1.65.43,3.32.21,1.66.21,1.66.43,3.31.21,1.66.22,1.66.21,1.65.21,1.66.22,1.64L262,255l.2,1.64.22,1.64Z"/></g></g></g><path class="cls-147" d="M258.06,225c1.37,10.66,3.11,21.79,4.48,32.45-7.05,4.08-14.86,8.48-21.91,12.55l-4.18-32.52Z"/><path class="cls-73" d="M258.12,224.65h0v-.07a.08.08,0,0,0,0,0,0,0,0,0,0,0,0,.06.06,0,0,0,0,0s0,0,0,0a.09.09,0,0,1,0,0l0-.05h0l0,0,0-.06,0-.05h0a.21.21,0,0,0,0-.06l-.05-.06,0,0h0l0,0-.07-.05-.06,0a0,0,0,0,0,0,0h0l-.08,0-.08,0h0l-.24-.1-.08,0-.09,0-.1,0h-.37l-.09,0-.05,0h0l-.1,0-.1.05-1.09.64L254,225l-1.07.62-3.26,1.88-.08,0-.16.09-3,1.74-.15.09-.11.06-4,2.31-.32.19-1,.54-3.47,2h0l-1.1.64-.35.2-1.84,1.06h0a3.62,3.62,0,0,1,.53.19l.25.09.59.25,0,0,0,0c.27.11.52.23.7.32h0l.12.06L258.06,225h0v0h0v0h0s0,0,0,0h0v0h0v-.09a.11.11,0,0,0,0-.08Z"/><path class="cls-43" d="M236.45,237.48l-.06,0-.06,0,0,0,0,0,0,0h0l0,0-.05,0-.06,0-.08,0-.09,0h0l-.09,0h0l-.39-.17h0l-.36-.15-.25-.09a2.5,2.5,0,0,0-.59-.2c.13,1,.3,2.3.42,3.29l.43,3.29.42,3.31c.4,3.09.79,6.17,1.19,9.26l.09.69.21,1.65,0,.38,1,7.88h0v0l.42,3.25a1,1,0,0,0,.66.79l.25.09a1.05,1.05,0,0,0,.34.08h.51l.08,0h.06l.06,0,.05,0,0,0h0l0,0,0,0,0,0,0,0h0l.05-.06a.3.3,0,0,0,0-.08Z"/><path class="cls-43" d="M263.71,281.82v-.09h0c0-.08,0-.14,0-.19L240.13,267.8s-.14.34-.2.35l.47.05h0l-.05,0,0,0-.05,0h0l-.05,0,0,0,0,0h0l-.06.05-.06.07h0v0l-.06.07,0,.07,0,.05,0,0s0,0,0,.06a.88.88,0,0,0-.05.15l0,0v0a1.36,1.36,0,0,0,0,.36v.3c0,.51-.93.42-.6.62s2,1,2.45,1.25l1,.61,1.17.67,1.18.68.59.34,1.82,1.05,1.13.65,1.18.68,1.18.68,1.18.69,1.18.68,1.19.68,1.18.68,1.18.68,1.08.63.18.1,1.09.64,1.18.67,1.17.68,1.17.67,1.16.67v-1.1c0-.2,0-.4,0-.6v-.89Z"/><path class="cls-73" d="M285.36,268.94,263.7,281.53c-7.54-4.36-15.79-9.24-23.34-13.6,7.07-4.1,14.82-8.24,21.89-12.34Z"/><path class="cls-41" d="M286.32,270.06s0-.07,0-.11v0a.13.13,0,0,0,0-.06s0-.06,0-.1,0,0,0-.05v0l0-.08,0-.07a0,0,0,0,0,0,0h0l0-.05-.05-.06,0-.05,0,0h0l0,0,0,0,0,0,0,0,0,0,0,0,0,0,0,0-.05,0,0,0-.06,0h-.29L263.7,281.53h0v0h0v0h0v.06h0a0,0,0,0,1,0,0v.09h0v.95a.31.31,0,0,1,0,.1v1.55l1.09-.63.71-.41,3.64-2.12.05,0,1.1-.64,1.11-.64.65-.38,1.33-.77.24-.14.1-.06,3.22-1.88,2.22-1.28,4.41-2.56,2.18-1.27a1,1,0,0,0,.23-.18h0s0,0,0,0,0,0,.07-.08l.06-.09a.25.25,0,0,1,0-.07v0h0l.05-.1,0-.1,0-.08v0h0l0-.11v-.23h0v-.31S286.32,270.1,286.32,270.06Z"/><polygon class="cls-41" points="258.07 224.97 236.45 237.48 240.37 267.93 262.25 255.59 258.07 224.97"/><polygon class="cls-73" points="259.39 235.1 237.74 247.5 239.51 261.25 261.29 248.18 259.39 235.1"/><path class="cls-133" d="M241.94,273.75a4.51,4.51,0,0,1,.07-.53s0-.05,0-.07.07-.32.12-.47l0-.07c0-.13.09-.25.14-.37l0-.1a2.69,2.69,0,0,1,.16-.29.39.39,0,0,1,.06-.11.35.35,0,0,1,.05-.08,3,3,0,0,1,.31-.39.94.94,0,0,1,.1-.1,2.18,2.18,0,0,1,.43-.32c-.47.26-.93.53-1.39.8a2.18,2.18,0,0,0-.42.33l-.11.1a4.08,4.08,0,0,0-.31.39l0,0v0l-.06.11-.13.23s0,0,0,.06a1.17,1.17,0,0,0-.05.11l-.06.16c0,.06,0,.14-.08.21a.43.43,0,0,1,0,.05v0a2.45,2.45,0,0,0-.08.29l0,.16a.13.13,0,0,0,0,.06s0,0,0,.06,0,.19,0,.29,0,.13,0,.2v0s0,0,0,.06,0,.18,0,.28v.3l-.06,23.35,1.38-.81.06-23.34c0-.22,0-.43,0-.63C241.93,273.78,241.94,273.77,241.94,273.75Z"/><path class="cls-133" d="M261.05,285.15c0-.11,0-.23,0-.35a.28.28,0,0,0,0-.09v0c0-.08,0-.16,0-.23s0-.24,0-.36,0-.1,0-.15,0-.05,0-.08,0-.09,0-.13l-.06-.36c0-.08,0-.16-.05-.23s0-.05,0-.07,0-.05,0-.07,0-.25-.08-.38l-.09-.31v0s0,0,0,0-.07-.24-.11-.37a3.58,3.58,0,0,0-.11-.35v0h0c0-.1-.06-.21-.1-.31l-.13-.33a.61.61,0,0,0-.05-.12.43.43,0,0,1,0-.05.47.47,0,0,1-.06-.15c-.05-.11-.09-.21-.15-.32a1.89,1.89,0,0,0-.11-.25v0l0,0a3.54,3.54,0,0,0-.16-.34l-.18-.35v0l0,0-.27-.49a.86.86,0,0,0-.07-.1c-.08-.15-.17-.29-.27-.44l-.14-.23a.18.18,0,0,1,0-.07l-.13-.18-.18-.25-.18-.24a.16.16,0,0,1,0-.07h0l-.22-.27-.21-.25s0,0,0,0l0,0-.15-.16-.22-.23L257,276l-.05-.05-.06-.06-.23-.22-.23-.2h0l0,0-.22-.17-.23-.17-.09-.07-.06,0-.08-.06-.21-.14-.22-.13a.1.1,0,0,1-.05,0l-8.89-5.13-.16-.09-.22-.11-.16-.07,0,0h0l-.2-.1-.22-.07-.06,0h0l-.11,0-.21-.06-.17,0h-.06l-.22,0-.23,0h-.56l-.33,0h0l-.17.05a1.17,1.17,0,0,0-.2.06h0a3.22,3.22,0,0,0-.46.21l-1.38.81a3.68,3.68,0,0,1,.45-.21l.26-.08.15,0a2.7,2.7,0,0,1,.41-.06h.51a2.89,2.89,0,0,1,.49.07h0l.48.12,0,0a3.7,3.7,0,0,1,.52.2h0a5.72,5.72,0,0,1,.55.28l8.88,5.13c.2.11.38.23.57.36l.06,0c.18.14.36.27.54.42h0c.18.15.35.32.53.49l.05,0c.17.16.33.33.49.5l0,0c.17.19.33.39.49.59l0,0,.38.51.12.18a2.9,2.9,0,0,1,.19.29c.1.16.2.31.29.47s.21.36.31.55l0,.06c.13.24.24.48.36.73l0,0c.11.23.21.47.3.71a.36.36,0,0,1,0,.09c.09.24.19.48.27.72a0,0,0,0,0,0,0c.08.25.16.51.23.76a.24.24,0,0,1,0,.08l.18.72s0,.05,0,.07c.05.25.09.48.13.72,0,0,0,.06,0,.09,0,.24.06.47.07.71a.17.17,0,0,1,0,.07c0,.25,0,.51,0,.76l-.07,23.35,1.38-.81.07-23.35Z"/><path class="cls-134" d="M253.86,275.41c3.22,1.85,5.82,6.73,5.81,10.88l-.07,23.35-1.39-.81.07-23.35c0-3.26-2-7.06-4.42-8.47L245,271.87c-2.44-1.4-4.44.1-4.45,3.36l-.06,23.35-1.4-.81.07-23.34c0-4.15,2.64-6,5.85-4.15Z"/><g class="cls-2"><polygon class="cls-50" points="224.91 364.61 227 363.4 227.14 314.77 225.04 315.99 224.91 364.61"/><polygon class="cls-51" points="225.04 315.99 227.14 314.77 198.87 298.45 196.78 299.67 225.04 315.99"/><polygon class="cls-52" points="196.78 299.67 196.64 348.29 224.91 364.61 225.04 315.99 196.78 299.67"/></g><g class="cls-2"><polygon class="cls-50" points="323.06 308.4 325.15 307.18 325.29 258.56 323.19 259.77 323.06 308.4"/><polygon class="cls-51" points="323.19 259.77 325.29 258.56 297.02 242.24 294.93 243.46 323.19 259.77"/><polygon class="cls-52" points="294.93 243.46 294.79 292.08 323.06 308.4 323.19 259.77 294.93 243.46"/></g><g class="cls-2"><polygon class="cls-149" points="187.56 303.03 187.56 305.91 223.53 326.81 223.52 323.93 187.56 303.03"/><polygon class="cls-150" points="223.52 323.93 223.53 326.81 335.32 262.27 335.31 259.39 223.52 323.93"/><polygon class="cls-55" points="187.56 303.03 223.52 323.93 335.31 259.39 299.34 238.49 187.56 303.03"/></g><g class="cls-25"><polygon points="275.44 271.25 284.75 276.66 306.82 263.93 297.5 258.51 275.44 271.25"/></g><g class="cls-2"><polygon class="cls-57" points="280 269.16 280 270.49 286.45 274.24 286.45 272.91 280 269.16"/><polygon class="cls-58" points="286.45 272.91 286.45 274.24 301.74 265.41 301.74 264.09 286.45 272.91"/><polygon class="cls-59" points="280 269.16 286.45 272.91 301.74 264.09 295.29 260.33 280 269.16"/><polygon class="cls-60" points="280 269.16 301.74 264.09 301.74 264.09 295.29 260.33 280 269.16"/></g><g class="cls-2"><polygon class="cls-57" points="285.95 270.44 284.81 269.78 284.77 257.85 285.92 258.51 285.95 270.44"/><polygon class="cls-56" points="285.92 258.51 284.77 257.85 295.16 251.85 296.31 252.51 285.92 258.51"/><polygon class="cls-61" points="296.31 252.51 296.34 264.45 285.95 270.44 285.92 258.51 296.31 252.51"/></g><g class="cls-2"><polygon class="cls-151" points="278.72 248.77 277.32 247.69 273.93 269.88 275.32 270.96 278.72 248.77"/><polygon class="cls-152" points="311.16 230.04 309.76 228.96 277.32 247.69 278.72 248.77 311.16 230.04"/><polygon class="cls-61" points="278.72 248.77 275.32 270.96 307.77 252.22 311.16 230.04 278.72 248.77"/><polygon class="cls-153" points="278.72 248.77 278.72 248.77 307.77 252.22 311.16 230.04 278.72 248.77"/></g><g class="cls-25"><polygon points="221.33 304.78 230.64 310.19 252.71 297.45 243.4 292.04 221.33 304.78"/></g><g class="cls-2"><polygon class="cls-57" points="225.88 302.69 225.88 304.02 232.34 307.77 232.34 306.44 225.88 302.69"/><polygon class="cls-58" points="232.34 306.44 232.34 307.77 247.63 298.94 247.63 297.62 232.34 306.44"/><polygon class="cls-59" points="225.88 302.69 232.34 306.44 247.63 297.62 241.17 293.86 225.88 302.69"/><polygon class="cls-60" points="225.88 302.69 247.63 297.62 247.63 297.62 241.17 293.86 225.88 302.69"/></g><g class="cls-2"><polygon class="cls-57" points="231.84 303.97 230.7 303.31 230.66 291.38 231.81 292.04 231.84 303.97"/><polygon class="cls-56" points="231.81 292.04 230.66 291.38 241.05 285.38 242.2 286.04 231.81 292.04"/><polygon class="cls-61" points="242.2 286.04 242.23 297.98 231.84 303.97 231.81 292.04 242.2 286.04"/></g><g class="cls-2"><polygon class="cls-151" points="224.6 282.3 223.21 281.22 219.81 303.41 221.21 304.49 224.6 282.3"/><polygon class="cls-152" points="257.05 263.57 255.65 262.49 223.21 281.22 224.6 282.3 257.05 263.57"/><polygon class="cls-61" points="224.6 282.3 221.21 304.49 253.66 285.75 257.05 263.57 224.6 282.3"/><polygon class="cls-153" points="224.6 282.3 224.6 282.3 253.66 285.75 257.05 263.57 224.6 282.3"/></g><g class="cls-25"><path d="M314.69,258.44c-1.72,1-1.73,2.61,0,3.6a6.86,6.86,0,0,0,6.21,0c1.72-1,1.73-2.61,0-3.6A6.86,6.86,0,0,0,314.69,258.44Z"/></g><path class="cls-50" d="M315.44,258.09c-1.31.75-1.31,2,0,2.73a5.23,5.23,0,0,0,4.72,0c1.3-.76,1.31-2,0-2.73A5.18,5.18,0,0,0,315.44,258.09Z"/><polygon class="cls-50" points="322.17 254.19 321.12 259.63 314.46 259.63 313.4 254.05 322.17 254.19"/><path class="cls-69" d="M314.69,252.26c-1.72,1-1.73,2.6,0,3.59a6.8,6.8,0,0,0,6.21,0c1.72-1,1.73-2.6,0-3.59A6.83,6.83,0,0,0,314.69,252.26Z"/><path class="cls-28" d="M315.65,252.74c-1.26.73-1.26,1.9,0,2.63a5,5,0,0,0,4.54,0c1.26-.73,1.27-1.9,0-2.63A5,5,0,0,0,315.65,252.74Z"/><path class="cls-28" d="M321.06,254.39s3.24-4.09.06-11.46c0,0-2.8,3.53-1.2,12.57A2.57,2.57,0,0,0,321.06,254.39Z"/><path class="cls-29" d="M321.08,243c-.06,2.83-.22,7.75-.61,12.14a2.28,2.28,0,0,1-.55.37C318.43,247.07,320.76,243.44,321.08,243Z"/><path class="cls-28" d="M319.47,253.89s2.59-4.53-1.65-11.34c0,0-2.24,3.9.69,12.6A2.53,2.53,0,0,0,319.47,253.89Z"/><path class="cls-29" d="M318.05,242.54c.36,2.82.93,7.71,1.2,12.11a2,2,0,0,1-.49.44C316,247,317.79,243,318.05,242.54Z"/><path class="cls-28" d="M319.31,255.68s3.88-1.38,4.85-7.63c0,0-3.35,1.18-6.08,7.89A2.09,2.09,0,0,0,319.31,255.68Z"/><path class="cls-29" d="M324.11,248.07c-1.23,1.87-3.4,5.09-5.51,7.85a1.5,1.5,0,0,1-.52,0C320.62,249.69,323.7,248.24,324.11,248.07Z"/><path class="cls-28" d="M317.58,255.07s2.08-2.37.38-6.91c0,0-1.79,2-1.1,7.55A1.61,1.61,0,0,0,317.58,255.07Z"/><path class="cls-29" d="M317.93,248.19c-.12,1.71-.36,4.68-.73,7.31a1.17,1.17,0,0,1-.34.21C316.21,250.58,317.73,248.45,317.93,248.19Z"/><path class="cls-28" d="M316.66,253.55s2-3.61-1.44-8.92c0,0-1.72,3.11.7,9.93A2.08,2.08,0,0,0,316.66,253.55Z"/><path class="cls-29" d="M315.19,244.67c.32,2.22.84,6.07,1.1,9.53a1.77,1.77,0,0,1-.37.36C313.66,248.19,315,245.07,315.19,244.67Z"/><path class="cls-28" d="M316.15,254.22s.47-3-3.29-5.89c0,0-.42,2.62,3,6.79A1.51,1.51,0,0,0,316.15,254.22Z"/><path class="cls-29" d="M312.85,248.37c.79,1.47,2.14,4,3.21,6.4a1.07,1.07,0,0,1-.17.35C312.68,251.23,312.82,248.69,312.85,248.37Z"/><g class="cls-25"><path d="M219.73,315.41c-1.73,1-1.74,2.61,0,3.6a6.8,6.8,0,0,0,6.21,0c1.72-1,1.73-2.6,0-3.59A6.81,6.81,0,0,0,219.73,315.41Z"/></g><path class="cls-50" d="M220.47,315.06c-1.31.76-1.31,2,0,2.73a5.23,5.23,0,0,0,4.72,0c1.3-.75,1.31-2,0-2.73A5.18,5.18,0,0,0,220.47,315.06Z"/><polygon class="cls-50" points="227.21 311.16 226.15 316.61 219.5 316.61 218.43 311.03 227.21 311.16"/><path class="cls-69" d="M219.73,309.23c-1.73,1-1.74,2.6,0,3.6a6.83,6.83,0,0,0,6.21,0c1.72-1,1.73-2.6,0-3.59A6.84,6.84,0,0,0,219.73,309.23Z"/><path class="cls-28" d="M220.68,309.71c-1.26.73-1.26,1.91,0,2.63a5,5,0,0,0,4.53,0c1.26-.73,1.27-1.9,0-2.63A5,5,0,0,0,220.68,309.71Z"/><path class="cls-28" d="M226.09,311.36s3.24-4.09.06-11.46c0,0-2.8,3.53-1.19,12.57A2.58,2.58,0,0,0,226.09,311.36Z"/><path class="cls-29" d="M226.11,300c-.06,2.83-.22,7.75-.61,12.14a1.84,1.84,0,0,1-.54.37C223.46,304,225.79,300.41,226.11,300Z"/><path class="cls-28" d="M224.5,310.86s2.6-4.53-1.65-11.34c0,0-2.24,3.9.69,12.6A2.53,2.53,0,0,0,224.5,310.86Z"/><path class="cls-29" d="M223.08,299.52c.36,2.81.93,7.7,1.2,12.1a1.78,1.78,0,0,1-.49.44C221.06,304,222.82,300,223.08,299.52Z"/><path class="cls-28" d="M224.34,312.65s3.88-1.37,4.85-7.63c0,0-3.35,1.18-6.08,7.89A2,2,0,0,0,224.34,312.65Z"/><path class="cls-29" d="M229.14,305c-1.23,1.87-3.4,5.09-5.51,7.85a1.5,1.5,0,0,1-.52,0C225.65,306.66,228.73,305.21,229.14,305Z"/><path class="cls-28" d="M222.61,312s2.08-2.37.38-6.91c0,0-1.79,2-1.1,7.55A1.49,1.49,0,0,0,222.61,312Z"/><path class="cls-29" d="M223,305.16c-.13,1.71-.37,4.68-.74,7.31a1.17,1.17,0,0,1-.34.21C221.24,307.55,222.75,305.42,223,305.16Z"/><path class="cls-28" d="M221.69,310.52s2-3.61-1.44-8.92c0,0-1.72,3.11.7,9.93A2,2,0,0,0,221.69,310.52Z"/><path class="cls-29" d="M220.22,301.65c.32,2.21.84,6.06,1.11,9.52a1.61,1.61,0,0,1-.38.36C218.69,305.17,220,302,220.22,301.65Z"/><path class="cls-28" d="M221.18,311.19s.47-3-3.29-5.89c0,0-.42,2.62,3,6.79A1.51,1.51,0,0,0,221.18,311.19Z"/><path class="cls-29" d="M217.88,305.34c.79,1.47,2.14,4,3.21,6.4a1.07,1.07,0,0,1-.17.35C217.71,308.2,217.85,305.67,217.88,305.34Z"/><g class="cls-2"><polygon class="cls-124" points="252.42 280.09 252.44 284.6 265.57 292.23 265.56 287.72 252.42 280.09"/><polygon class="cls-125" points="265.56 287.72 265.57 292.23 275.97 286.23 275.96 281.71 265.56 287.72"/><polygon class="cls-126" points="252.42 280.09 265.56 287.72 275.96 281.71 262.83 274.08 252.42 280.09"/></g><polygon class="cls-73" points="275.46 282.98 265.57 288.64 265.56 291.55 275.42 285.82 275.46 282.98"/><polygon class="cls-126" points="265.57 288.64 252.42 281.13 252.42 283.85 265.56 291.55 265.57 288.64"/><g class="cls-2"><polygon class="cls-127" points="254.16 276.1 254.17 280.61 267.3 288.24 267.29 283.73 254.16 276.1"/><polygon class="cls-117" points="267.29 283.73 267.3 288.24 277.71 282.23 277.7 277.72 267.29 283.73"/><polygon class="cls-129" points="254.16 276.1 267.29 283.73 277.7 277.72 264.57 270.09 254.16 276.1"/></g><polygon class="cls-129" points="277.2 278.99 267.3 284.65 267.29 287.56 277.16 281.82 277.2 278.99"/><polygon class="cls-130" points="267.3 284.65 254.16 277.13 254.16 279.85 267.29 287.56 267.3 284.65"/><g class="cls-25"><path d="M416.72,266c6.06,3.5,6.09,9.16.08,12.66s-15.8,3.49-21.85,0-6.08-9.16-.07-12.65S410.67,262.54,416.72,266Z"/></g><path class="cls-7" d="M410,270.42c3.21,1.86,3.23,4.86,0,6.71a12.69,12.69,0,0,1-11.57,0c-3.22-1.85-3.23-4.85,0-6.71A12.77,12.77,0,0,1,410,270.42Z"/><polygon class="cls-7" points="394.35 260.36 396.08 273.78 412.44 274.33 414.19 260.36 394.35 260.36"/><path class="cls-74" d="M411.26,256.3c3.88,2.24,3.9,5.88,0,8.12a15.47,15.47,0,0,1-14,0c-3.89-2.24-3.91-5.88,0-8.12A15.46,15.46,0,0,1,411.26,256.3Z"/><path class="cls-154" d="M410.26,256.88c3.32,1.92,3.34,5,0,6.95a13.23,13.23,0,0,1-12,0c-3.33-1.93-3.34-5,0-7A13.23,13.23,0,0,1,410.26,256.88Z"/><path class="cls-76" d="M405.84,261a1.68,1.68,0,0,1-1.8,1.55h0a1.68,1.68,0,0,1-1.79-1.55V232.83a1.69,1.69,0,0,1,1.79-1.55h0a1.69,1.69,0,0,1,1.8,1.55Z"/><path class="cls-77" d="M406.7,233s3.38,2.74-8.66,7.18-16.06,7.06-16.27,9.87-2.54-19.44,15.64-20.47C397.41,229.61,403.74,229.22,406.7,233Z"/><path class="cls-78" d="M406.6,235.4a14.13,14.13,0,0,0-7.47-1.78c-9.93.56-13.73,7.45-15.11,13.13,2.33-1.81,6.68-3.84,14-6.54C403.38,238.24,405.68,236.61,406.6,235.4Z"/><path class="cls-77" d="M401.84,231.86s-3.38,2.75,8.66,7.18,16.06,7.07,16.27,9.87,2.53-19.43-15.64-20.46C411.13,228.45,404.79,228.06,401.84,231.86Z"/><path class="cls-78" d="M410.5,239c7.24,2.67,11.56,4.68,13.92,6.48-1.46-5.6-5.32-12.19-15-12.73a14.24,14.24,0,0,0-7.3,1.66C403.13,235.63,405.46,237.19,410.5,239Z"/><path class="cls-78" d="M402.32,234.35s1.59,3.12,7.11-5.58,8.26-11.42,10.51-11.12-14.84-5.28-18.72,8.83C401.22,226.48,399.83,231.39,402.32,234.35Z"/><path class="cls-77" d="M405.16,231.21s3.5-.24-1.18,9-5.62,13-4.21,14.76-12.16-10.1-2-20.67C397.79,234.29,401.32,230.58,405.16,231.21Z"/><path class="cls-77" d="M405.84,233.67s-1,3.59-7.72-4.71-9.84-10.7-11.92-10,13.19-8.14,19.33,6.16C405.53,225.13,407.69,230.1,405.84,233.67Z"/><path class="cls-78" d="M404,234.31a13.35,13.35,0,0,0-.89-6.86c-3.45-8-9.79-8.75-14.31-8,2,1.16,4.86,4.06,9.29,9.48C401,232.56,402.88,233.92,404,234.31Z"/></g></g></svg>